<svg xmlns="http://www.w3.org/2000/svg" xmlns:xlink="http://www.w3.org/1999/xlink" viewBox="0 0 1100 440" width="100%" role="img" font-family="system-ui,-apple-system,Segoe UI,sans-serif">
<text x="1084.0" y="22.0" font-size="15" font-weight="400" fill="#6b7280" text-anchor="end" dominant-baseline="auto">schematic — not a measurement</text>
<rect x="250.0" y="304.0" width="46.0" height="40.0" rx="3" fill="#ffffff" stroke="#e5e7eb" stroke-width="1.0"/>
<rect x="304.0" y="304.0" width="46.0" height="40.0" rx="3" fill="#ffffff" stroke="#e5e7eb" stroke-width="1.0"/>
<rect x="358.0" y="304.0" width="46.0" height="40.0" rx="3" fill="#ffffff" stroke="#e5e7eb" stroke-width="1.0"/>
<rect x="412.0" y="304.0" width="46.0" height="40.0" rx="3" fill="#ffffff" stroke="#e5e7eb" stroke-width="1.0"/>
<rect x="466.0" y="304.0" width="46.0" height="40.0" rx="3" fill="#ffffff" stroke="#e5e7eb" stroke-width="1.0"/>
<rect x="520.0" y="304.0" width="46.0" height="40.0" rx="3" fill="#ffffff" stroke="#e5e7eb" stroke-width="1.0"/>
<rect x="574.0" y="304.0" width="46.0" height="40.0" rx="3" fill="#ffffff" stroke="#e5e7eb" stroke-width="1.0"/>
<rect x="628.0" y="304.0" width="46.0" height="40.0" rx="3" fill="#ffffff" stroke="#e5e7eb" stroke-width="1.0"/>
<rect x="682.0" y="304.0" width="46.0" height="40.0" rx="3" fill="#ffffff" stroke="#e5e7eb" stroke-width="1.0"/>
<rect x="250.0" y="226.0" width="46.0" height="40.0" rx="3" fill="#ffffff" stroke="#e5e7eb" stroke-width="1.0"/>
<rect x="304.0" y="226.0" width="46.0" height="40.0" rx="3" fill="#ffffff" stroke="#e5e7eb" stroke-width="1.0"/>
<rect x="358.0" y="226.0" width="46.0" height="40.0" rx="3" fill="#ffffff" stroke="#e5e7eb" stroke-width="1.0"/>
<rect x="412.0" y="226.0" width="46.0" height="40.0" rx="3" fill="#ffffff" stroke="#e5e7eb" stroke-width="1.0"/>
<rect x="466.0" y="226.0" width="46.0" height="40.0" rx="3" fill="#ffffff" stroke="#e5e7eb" stroke-width="1.0"/>
<rect x="520.0" y="226.0" width="46.0" height="40.0" rx="3" fill="#ffffff" stroke="#e5e7eb" stroke-width="1.0"/>
<rect x="574.0" y="226.0" width="46.0" height="40.0" rx="3" fill="#ffffff" stroke="#e5e7eb" stroke-width="1.0"/>
<rect x="628.0" y="226.0" width="46.0" height="40.0" rx="3" fill="#ffffff" stroke="#e5e7eb" stroke-width="1.0"/>
<rect x="682.0" y="226.0" width="46.0" height="40.0" rx="3" fill="#ffffff" stroke="#e5e7eb" stroke-width="1.0"/>
<rect x="250.0" y="148.0" width="46.0" height="40.0" rx="3" fill="#ffffff" stroke="#e5e7eb" stroke-width="1.0"/>
<rect x="304.0" y="148.0" width="46.0" height="40.0" rx="3" fill="#ffffff" stroke="#e5e7eb" stroke-width="1.0"/>
<rect x="358.0" y="148.0" width="46.0" height="40.0" rx="3" fill="#ffffff" stroke="#e5e7eb" stroke-width="1.0"/>
<rect x="412.0" y="148.0" width="46.0" height="40.0" rx="3" fill="#ffffff" stroke="#e5e7eb" stroke-width="1.0"/>
<rect x="466.0" y="148.0" width="46.0" height="40.0" rx="3" fill="#ffffff" stroke="#e5e7eb" stroke-width="1.0"/>
<rect x="520.0" y="148.0" width="46.0" height="40.0" rx="3" fill="#ffffff" stroke="#e5e7eb" stroke-width="1.0"/>
<rect x="574.0" y="148.0" width="46.0" height="40.0" rx="3" fill="#ffffff" stroke="#e5e7eb" stroke-width="1.0"/>
<rect x="628.0" y="148.0" width="46.0" height="40.0" rx="3" fill="#ffffff" stroke="#e5e7eb" stroke-width="1.0"/>
<rect x="682.0" y="148.0" width="46.0" height="40.0" rx="3" fill="#ffffff" stroke="#e5e7eb" stroke-width="1.0"/>
<rect x="250.0" y="70.0" width="46.0" height="40.0" rx="3" fill="#ffffff" stroke="#e5e7eb" stroke-width="1.0"/>
<rect x="304.0" y="70.0" width="46.0" height="40.0" rx="3" fill="#ffffff" stroke="#e5e7eb" stroke-width="1.0"/>
<rect x="358.0" y="70.0" width="46.0" height="40.0" rx="3" fill="#ffffff" stroke="#e5e7eb" stroke-width="1.0"/>
<rect x="412.0" y="70.0" width="46.0" height="40.0" rx="3" fill="#ffffff" stroke="#e5e7eb" stroke-width="1.0"/>
<rect x="466.0" y="70.0" width="46.0" height="40.0" rx="3" fill="#ffffff" stroke="#e5e7eb" stroke-width="1.0"/>
<rect x="520.0" y="70.0" width="46.0" height="40.0" rx="3" fill="#ffffff" stroke="#e5e7eb" stroke-width="1.0"/>
<rect x="574.0" y="70.0" width="46.0" height="40.0" rx="3" fill="#ffffff" stroke="#e5e7eb" stroke-width="1.0"/>
<rect x="628.0" y="70.0" width="46.0" height="40.0" rx="3" fill="#ffffff" stroke="#e5e7eb" stroke-width="1.0"/>
<rect x="682.0" y="70.0" width="46.0" height="40.0" rx="3" fill="#ffffff" stroke="#e5e7eb" stroke-width="1.0"/>
<text x="202.0" y="324.0" font-size="18" font-weight="600" fill="#1f2328" text-anchor="end" dominant-baseline="middle">input</text>
<svg x="210" y="312.644" width="11.6" height="19.3562" viewBox="0 0 11.6 19.35625"><defs>
  <style type="text/css">*{stroke-linejoin: round; stroke-linecap: butt}</style>
 </defs>
 <g id="t1-figure_1">
  <g id="t1-patch_1">
   <path d="M 0 19.35625 
L 11.6 19.35625 
L 11.6 0 
L 0 0 
L 0 19.35625 
z
" style="fill: none"/>
  </g>
  <g id="t1-text_1">
   <!-- $x$ -->
   <g style="fill: #1f2328" transform="translate(0 15.196875) scale(0.2 -0.2)">
    <defs>
     <path id="t1-Cmmi10-78" d="M 500 184 
Q 613 97 819 97 
Q 1019 97 1172 289 
Q 1325 481 1381 709 
L 1672 1844 
Q 1741 2153 1741 2266 
Q 1741 2425 1652 2544 
Q 1563 2663 1403 2663 
Q 1200 2663 1022 2536 
Q 844 2409 722 2214 
Q 600 2019 550 1819 
Q 538 1778 500 1778 
L 422 1778 
Q 372 1778 372 1838 
L 372 1856 
Q 434 2094 584 2320 
Q 734 2547 951 2687 
Q 1169 2828 1416 2828 
Q 1650 2828 1839 2703 
Q 2028 2578 2106 2363 
Q 2216 2559 2386 2693 
Q 2556 2828 2759 2828 
Q 2897 2828 3040 2779 
Q 3184 2731 3275 2631 
Q 3366 2531 3366 2381 
Q 3366 2219 3261 2101 
Q 3156 1984 2994 1984 
Q 2891 1984 2822 2050 
Q 2753 2116 2753 2216 
Q 2753 2350 2845 2451 
Q 2938 2553 3066 2572 
Q 2950 2663 2747 2663 
Q 2541 2663 2389 2472 
Q 2238 2281 2175 2047 
L 1894 916 
Q 1825 659 1825 494 
Q 1825 331 1917 214 
Q 2009 97 2163 97 
Q 2463 97 2698 361 
Q 2934 625 3009 941 
Q 3022 978 3059 978 
L 3138 978 
Q 3163 978 3178 961 
Q 3194 944 3194 922 
Q 3194 916 3188 903 
Q 3097 522 2806 225 
Q 2516 -72 2150 -72 
Q 1916 -72 1727 54 
Q 1538 181 1459 397 
Q 1359 209 1182 68 
Q 1006 -72 806 -72 
Q 669 -72 523 -23 
Q 378 25 287 125 
Q 197 225 197 378 
Q 197 528 301 651 
Q 406 775 563 775 
Q 669 775 741 711 
Q 813 647 813 544 
Q 813 409 723 309 
Q 634 209 500 184 
z
" transform="scale(0.015625)"/>
    </defs>
    <use xlink:href="#t1-Cmmi10-78" transform="translate(0 0.8125)"/>
   </g>
  </g>
 </g>
</svg>
<text x="228.0" y="246.0" font-size="18" font-weight="600" fill="#1f2328" text-anchor="end" dominant-baseline="middle">layer 1</text>
<text x="228.0" y="168.0" font-size="18" font-weight="600" fill="#1f2328" text-anchor="end" dominant-baseline="middle">layer 2</text>
<text x="176.0" y="90.0" font-size="18" font-weight="600" fill="#1f2328" text-anchor="end" dominant-baseline="middle">layer 3  →</text>
<svg x="182" y="82.6437" width="17.2" height="19.3562" viewBox="0 0 17.2 19.35625"><defs>
  <style type="text/css">*{stroke-linejoin: round; stroke-linecap: butt}</style>
 </defs>
 <g id="t2-figure_1">
  <g id="t2-patch_1">
   <path d="M 0 19.35625 
L 17.2 19.35625 
L 17.2 0 
L 0 0 
L 0 19.35625 
z
" style="fill: none"/>
  </g>
  <g id="t2-text_1">
   <!-- $\hat{y}_t$ -->
   <g style="fill: #1f2328" transform="translate(0 15.15625) scale(0.2 -0.2)">
    <defs>
     <path id="t2-Cmr10-5e" d="M 863 3444 
L 738 3578 
L 1600 4441 
L 2456 3578 
L 2328 3444 
L 1600 4084 
L 863 3444 
z
" transform="scale(0.015625)"/>
     <path id="t2-Cmmi10-79" d="M 538 -916 
Q 672 -1147 1006 -1147 
Q 1309 -1147 1531 -934 
Q 1753 -722 1889 -420 
Q 2025 -119 2100 197 
Q 1816 -72 1484 -72 
Q 1231 -72 1053 15 
Q 875 103 776 276 
Q 678 450 678 697 
Q 678 906 734 1126 
Q 791 1347 892 1617 
Q 994 1888 1069 2088 
Q 1153 2322 1153 2472 
Q 1153 2663 1013 2663 
Q 759 2663 595 2402 
Q 431 2141 353 1819 
Q 341 1778 300 1778 
L 225 1778 
Q 172 1778 172 1838 
L 172 1856 
Q 275 2238 487 2533 
Q 700 2828 1025 2828 
Q 1253 2828 1411 2678 
Q 1569 2528 1569 2297 
Q 1569 2178 1516 2047 
Q 1488 1969 1388 1706 
Q 1288 1444 1234 1272 
Q 1181 1100 1147 934 
Q 1113 769 1113 603 
Q 1113 391 1203 244 
Q 1294 97 1491 97 
Q 1888 97 2203 581 
L 2688 2553 
Q 2709 2638 2787 2698 
Q 2866 2759 2956 2759 
Q 3034 2759 3092 2709 
Q 3150 2659 3150 2578 
Q 3150 2541 3144 2528 
L 2509 -19 
Q 2425 -347 2200 -647 
Q 1975 -947 1658 -1130 
Q 1341 -1313 997 -1313 
Q 831 -1313 668 -1248 
Q 506 -1184 406 -1056 
Q 306 -928 306 -756 
Q 306 -581 409 -453 
Q 513 -325 684 -325 
Q 788 -325 858 -389 
Q 928 -453 928 -556 
Q 928 -703 818 -812 
Q 709 -922 563 -922 
Q 556 -919 550 -917 
Q 544 -916 538 -916 
z
" transform="scale(0.015625)"/>
     <path id="t2-Cmmi10-74" d="M 397 519 
Q 397 613 416 697 
L 878 2534 
L 206 2534 
Q 141 2534 141 2619 
Q 166 2759 225 2759 
L 934 2759 
L 1191 3803 
Q 1216 3888 1291 3947 
Q 1366 4006 1459 4006 
Q 1541 4006 1595 3957 
Q 1650 3909 1650 3828 
Q 1650 3809 1648 3798 
Q 1647 3788 1644 3775 
L 1388 2759 
L 2047 2759 
Q 2113 2759 2113 2675 
Q 2109 2659 2100 2621 
Q 2091 2584 2075 2559 
Q 2059 2534 2028 2534 
L 1331 2534 
L 872 684 
Q 825 503 825 372 
Q 825 97 1013 97 
Q 1294 97 1511 361 
Q 1728 625 1844 941 
Q 1869 978 1894 978 
L 1972 978 
Q 1997 978 2012 961 
Q 2028 944 2028 922 
Q 2028 909 2022 903 
Q 1881 516 1612 222 
Q 1344 -72 997 -72 
Q 744 -72 570 93 
Q 397 259 397 519 
z
" transform="scale(0.015625)"/>
    </defs>
    <use xlink:href="#t2-Cmr10-5e" transform="translate(5.724609 3.609375)"/>
    <use xlink:href="#t2-Cmmi10-79" transform="translate(0 0.734375)"/>
    <use xlink:href="#t2-Cmmi10-74" transform="translate(53.487578 -16.271875) scale(0.7)"/>
   </g>
  </g>
 </g>
</svg>
<line x1="240.0" y1="374.0" x2="750.0" y2="374.0" stroke="#6b7280" stroke-width="1.4"/>
<polygon points="758.0,374.0 748.0,369.0 748.0,379.0" fill="#6b7280"/>
<line x1="381.0" y1="369.0" x2="381.0" y2="379.0" stroke="#6b7280" stroke-width="1.4"/>
<svg x="377.855" y="384.547" width="6.29" height="16.4528" viewBox="0 0 6.29 16.452813"><defs>
  <style type="text/css">*{stroke-linejoin: round; stroke-linecap: butt}</style>
 </defs>
 <g id="t3-figure_1">
  <g id="t3-patch_1">
   <path d="M 0 16.452813 
L 6.29 16.452813 
L 6.29 0 
L 0 0 
L 0 16.452813 
z
" style="fill: none"/>
  </g>
  <g id="t3-text_1">
   <!-- $t$ -->
   <g style="fill: #1f2328" transform="translate(0 12.917344) scale(0.17 -0.17)">
    <defs>
     <path id="t3-Cmmi10-74" d="M 397 519 
Q 397 613 416 697 
L 878 2534 
L 206 2534 
Q 141 2534 141 2619 
Q 166 2759 225 2759 
L 934 2759 
L 1191 3803 
Q 1216 3888 1291 3947 
Q 1366 4006 1459 4006 
Q 1541 4006 1595 3957 
Q 1650 3909 1650 3828 
Q 1650 3809 1648 3798 
Q 1647 3788 1644 3775 
L 1388 2759 
L 2047 2759 
Q 2113 2759 2113 2675 
Q 2109 2659 2100 2621 
Q 2091 2584 2075 2559 
Q 2059 2534 2028 2534 
L 1331 2534 
L 872 684 
Q 825 503 825 372 
Q 825 97 1013 97 
Q 1294 97 1511 361 
Q 1728 625 1844 941 
Q 1869 978 1894 978 
L 1972 978 
Q 1997 978 2012 961 
Q 2028 944 2028 922 
Q 2028 909 2022 903 
Q 1881 516 1612 222 
Q 1344 -72 997 -72 
Q 744 -72 570 93 
Q 397 259 397 519 
z
" transform="scale(0.015625)"/>
    </defs>
    <use xlink:href="#t3-Cmmi10-74" transform="translate(0 0.40625)"/>
   </g>
  </g>
 </g>
</svg>
<line x1="489.0" y1="369.0" x2="489.0" y2="379.0" stroke="#6b7280" stroke-width="1.4"/>
<svg x="472.085" y="385.547" width="33.83" height="16.4528" viewBox="0 0 33.83 16.452813"><defs>
  <style type="text/css">*{stroke-linejoin: round; stroke-linecap: butt}</style>
 </defs>
 <g id="t4-figure_1">
  <g id="t4-patch_1">
   <path d="M 0 16.452813 
L 33.83 16.452813 
L 33.83 0 
L 0 0 
L 0 16.452813 
z
" style="fill: none"/>
  </g>
  <g id="t4-text_1">
   <!-- $t+2$ -->
   <g style="fill: #1f2328" transform="translate(0 12.917344) scale(0.17 -0.17)">
    <defs>
     <path id="t4-Cmmi10-74" d="M 397 519 
Q 397 613 416 697 
L 878 2534 
L 206 2534 
Q 141 2534 141 2619 
Q 166 2759 225 2759 
L 934 2759 
L 1191 3803 
Q 1216 3888 1291 3947 
Q 1366 4006 1459 4006 
Q 1541 4006 1595 3957 
Q 1650 3909 1650 3828 
Q 1650 3809 1648 3798 
Q 1647 3788 1644 3775 
L 1388 2759 
L 2047 2759 
Q 2113 2759 2113 2675 
Q 2109 2659 2100 2621 
Q 2091 2584 2075 2559 
Q 2059 2534 2028 2534 
L 1331 2534 
L 872 684 
Q 825 503 825 372 
Q 825 97 1013 97 
Q 1294 97 1511 361 
Q 1728 625 1844 941 
Q 1869 978 1894 978 
L 1972 978 
Q 1997 978 2012 961 
Q 2028 944 2028 922 
Q 2028 909 2022 903 
Q 1881 516 1612 222 
Q 1344 -72 997 -72 
Q 744 -72 570 93 
Q 397 259 397 519 
z
" transform="scale(0.015625)"/>
     <path id="t4-Cmr10-2b" d="M 481 1472 
Q 428 1472 393 1512 
Q 359 1553 359 1600 
Q 359 1647 393 1687 
Q 428 1728 481 1728 
L 2363 1728 
L 2363 3616 
Q 2363 3666 2400 3698 
Q 2438 3731 2491 3731 
Q 2538 3731 2578 3698 
Q 2619 3666 2619 3616 
L 2619 1728 
L 4500 1728 
Q 4547 1728 4581 1687 
Q 4616 1647 4616 1600 
Q 4616 1553 4581 1512 
Q 4547 1472 4500 1472 
L 2619 1472 
L 2619 -416 
Q 2619 -466 2578 -498 
Q 2538 -531 2491 -531 
Q 2438 -531 2400 -498 
Q 2363 -466 2363 -416 
L 2363 1472 
L 481 1472 
z
" transform="scale(0.015625)"/>
     <path id="t4-Cmr10-32" d="M 319 0 
L 319 172 
Q 319 188 331 206 
L 1325 1306 
Q 1550 1550 1690 1715 
Q 1831 1881 1968 2097 
Q 2106 2313 2186 2536 
Q 2266 2759 2266 3009 
Q 2266 3272 2169 3511 
Q 2072 3750 1880 3894 
Q 1688 4038 1416 4038 
Q 1138 4038 916 3870 
Q 694 3703 603 3438 
Q 628 3444 672 3444 
Q 816 3444 917 3347 
Q 1019 3250 1019 3097 
Q 1019 2950 917 2848 
Q 816 2747 672 2747 
Q 522 2747 420 2851 
Q 319 2956 319 3097 
Q 319 3338 409 3548 
Q 500 3759 670 3923 
Q 841 4088 1055 4175 
Q 1269 4263 1509 4263 
Q 1875 4263 2190 4108 
Q 2506 3953 2690 3670 
Q 2875 3388 2875 3009 
Q 2875 2731 2753 2481 
Q 2631 2231 2440 2026 
Q 2250 1822 1953 1562 
Q 1656 1303 1563 1216 
L 838 519 
L 1453 519 
Q 1906 519 2211 526 
Q 2516 534 2534 550 
Q 2609 631 2688 1141 
L 2875 1141 
L 2694 0 
L 319 0 
z
" transform="scale(0.015625)"/>
    </defs>
    <use xlink:href="#t4-Cmmi10-74" transform="translate(0 0.390625)"/>
    <use xlink:href="#t4-Cmr10-2b" transform="translate(53.642578 0.390625)"/>
    <use xlink:href="#t4-Cmr10-32" transform="translate(148.886719 0.390625)"/>
   </g>
  </g>
 </g>
</svg>
<line x1="597.0" y1="369.0" x2="597.0" y2="379.0" stroke="#6b7280" stroke-width="1.4"/>
<svg x="580.085" y="385.547" width="33.83" height="16.4528" viewBox="0 0 33.83 16.452813"><defs>
  <style type="text/css">*{stroke-linejoin: round; stroke-linecap: butt}</style>
 </defs>
 <g id="t5-figure_1">
  <g id="t5-patch_1">
   <path d="M 0 16.452813 
L 33.83 16.452813 
L 33.83 0 
L 0 0 
L 0 16.452813 
z
" style="fill: none"/>
  </g>
  <g id="t5-text_1">
   <!-- $t+4$ -->
   <g style="fill: #1f2328" transform="translate(0 12.917344) scale(0.17 -0.17)">
    <defs>
     <path id="t5-Cmmi10-74" d="M 397 519 
Q 397 613 416 697 
L 878 2534 
L 206 2534 
Q 141 2534 141 2619 
Q 166 2759 225 2759 
L 934 2759 
L 1191 3803 
Q 1216 3888 1291 3947 
Q 1366 4006 1459 4006 
Q 1541 4006 1595 3957 
Q 1650 3909 1650 3828 
Q 1650 3809 1648 3798 
Q 1647 3788 1644 3775 
L 1388 2759 
L 2047 2759 
Q 2113 2759 2113 2675 
Q 2109 2659 2100 2621 
Q 2091 2584 2075 2559 
Q 2059 2534 2028 2534 
L 1331 2534 
L 872 684 
Q 825 503 825 372 
Q 825 97 1013 97 
Q 1294 97 1511 361 
Q 1728 625 1844 941 
Q 1869 978 1894 978 
L 1972 978 
Q 1997 978 2012 961 
Q 2028 944 2028 922 
Q 2028 909 2022 903 
Q 1881 516 1612 222 
Q 1344 -72 997 -72 
Q 744 -72 570 93 
Q 397 259 397 519 
z
" transform="scale(0.015625)"/>
     <path id="t5-Cmr10-2b" d="M 481 1472 
Q 428 1472 393 1512 
Q 359 1553 359 1600 
Q 359 1647 393 1687 
Q 428 1728 481 1728 
L 2363 1728 
L 2363 3616 
Q 2363 3666 2400 3698 
Q 2438 3731 2491 3731 
Q 2538 3731 2578 3698 
Q 2619 3666 2619 3616 
L 2619 1728 
L 4500 1728 
Q 4547 1728 4581 1687 
Q 4616 1647 4616 1600 
Q 4616 1553 4581 1512 
Q 4547 1472 4500 1472 
L 2619 1472 
L 2619 -416 
Q 2619 -466 2578 -498 
Q 2538 -531 2491 -531 
Q 2438 -531 2400 -498 
Q 2363 -466 2363 -416 
L 2363 1472 
L 481 1472 
z
" transform="scale(0.015625)"/>
     <path id="t5-Cmr10-34" d="M 178 1056 
L 178 1281 
L 2156 4231 
Q 2178 4263 2222 4263 
L 2316 4263 
Q 2388 4263 2388 4191 
L 2388 1281 
L 3016 1281 
L 3016 1056 
L 2388 1056 
L 2388 428 
Q 2388 297 2575 261 
Q 2763 225 3009 225 
L 3009 0 
L 1247 0 
L 1247 225 
Q 1494 225 1681 261 
Q 1869 297 1869 428 
L 1869 1056 
L 178 1056 
z
M 391 1281 
L 1906 1281 
L 1906 3547 
L 391 1281 
z
" transform="scale(0.015625)"/>
    </defs>
    <use xlink:href="#t5-Cmmi10-74" transform="translate(0 0.390625)"/>
    <use xlink:href="#t5-Cmr10-2b" transform="translate(53.642578 0.390625)"/>
    <use xlink:href="#t5-Cmr10-34" transform="translate(148.886719 0.390625)"/>
   </g>
  </g>
 </g>
</svg>
<line x1="705.0" y1="369.0" x2="705.0" y2="379.0" stroke="#6b7280" stroke-width="1.4"/>
<svg x="688.085" y="385.547" width="33.83" height="16.4528" viewBox="0 0 33.83 16.452813"><defs>
  <style type="text/css">*{stroke-linejoin: round; stroke-linecap: butt}</style>
 </defs>
 <g id="t6-figure_1">
  <g id="t6-patch_1">
   <path d="M 0 16.452813 
L 33.83 16.452813 
L 33.83 0 
L 0 0 
L 0 16.452813 
z
" style="fill: none"/>
  </g>
  <g id="t6-text_1">
   <!-- $t+6$ -->
   <g style="fill: #1f2328" transform="translate(0 12.917344) scale(0.17 -0.17)">
    <defs>
     <path id="t6-Cmmi10-74" d="M 397 519 
Q 397 613 416 697 
L 878 2534 
L 206 2534 
Q 141 2534 141 2619 
Q 166 2759 225 2759 
L 934 2759 
L 1191 3803 
Q 1216 3888 1291 3947 
Q 1366 4006 1459 4006 
Q 1541 4006 1595 3957 
Q 1650 3909 1650 3828 
Q 1650 3809 1648 3798 
Q 1647 3788 1644 3775 
L 1388 2759 
L 2047 2759 
Q 2113 2759 2113 2675 
Q 2109 2659 2100 2621 
Q 2091 2584 2075 2559 
Q 2059 2534 2028 2534 
L 1331 2534 
L 872 684 
Q 825 503 825 372 
Q 825 97 1013 97 
Q 1294 97 1511 361 
Q 1728 625 1844 941 
Q 1869 978 1894 978 
L 1972 978 
Q 1997 978 2012 961 
Q 2028 944 2028 922 
Q 2028 909 2022 903 
Q 1881 516 1612 222 
Q 1344 -72 997 -72 
Q 744 -72 570 93 
Q 397 259 397 519 
z
" transform="scale(0.015625)"/>
     <path id="t6-Cmr10-2b" d="M 481 1472 
Q 428 1472 393 1512 
Q 359 1553 359 1600 
Q 359 1647 393 1687 
Q 428 1728 481 1728 
L 2363 1728 
L 2363 3616 
Q 2363 3666 2400 3698 
Q 2438 3731 2491 3731 
Q 2538 3731 2578 3698 
Q 2619 3666 2619 3616 
L 2619 1728 
L 4500 1728 
Q 4547 1728 4581 1687 
Q 4616 1647 4616 1600 
Q 4616 1553 4581 1512 
Q 4547 1472 4500 1472 
L 2619 1472 
L 2619 -416 
Q 2619 -466 2578 -498 
Q 2538 -531 2491 -531 
Q 2438 -531 2400 -498 
Q 2363 -466 2363 -416 
L 2363 1472 
L 481 1472 
z
" transform="scale(0.015625)"/>
     <path id="t6-Cmr10-36" d="M 1600 -141 
Q 1203 -141 937 70 
Q 672 281 526 617 
Q 381 953 325 1322 
Q 269 1691 269 2069 
Q 269 2575 466 3084 
Q 663 3594 1045 3928 
Q 1428 4263 1953 4263 
Q 2172 4263 2361 4180 
Q 2550 4097 2658 3936 
Q 2766 3775 2766 3547 
Q 2766 3416 2677 3327 
Q 2588 3238 2456 3238 
Q 2331 3238 2240 3328 
Q 2150 3419 2150 3547 
Q 2150 3672 2240 3762 
Q 2331 3853 2456 3853 
L 2491 3853 
Q 2409 3969 2261 4023 
Q 2113 4078 1953 4078 
Q 1759 4078 1595 3993 
Q 1431 3909 1300 3765 
Q 1169 3622 1081 3448 
Q 994 3275 945 3053 
Q 897 2831 884 2637 
Q 872 2444 872 2150 
Q 984 2413 1190 2580 
Q 1397 2747 1656 2747 
Q 1941 2747 2175 2631 
Q 2409 2516 2578 2311 
Q 2747 2106 2836 1843 
Q 2925 1581 2925 1313 
Q 2925 938 2758 598 
Q 2591 259 2287 59 
Q 1984 -141 1600 -141 
z
M 1600 63 
Q 1847 63 1997 175 
Q 2147 288 2217 473 
Q 2288 659 2305 848 
Q 2322 1038 2322 1313 
Q 2322 1675 2287 1931 
Q 2253 2188 2100 2383 
Q 1947 2578 1631 2578 
Q 1372 2578 1205 2403 
Q 1038 2228 961 1961 
Q 884 1694 884 1447 
Q 884 1363 891 1319 
Q 891 1309 889 1303 
Q 888 1297 884 1288 
Q 884 1013 940 731 
Q 997 450 1156 256 
Q 1316 63 1600 63 
z
" transform="scale(0.015625)"/>
    </defs>
    <use xlink:href="#t6-Cmmi10-74" transform="translate(0 0.390625)"/>
    <use xlink:href="#t6-Cmr10-2b" transform="translate(53.642578 0.390625)"/>
    <use xlink:href="#t6-Cmr10-36" transform="translate(148.886719 0.390625)"/>
   </g>
  </g>
 </g>
</svg>
<text x="768.0" y="379.0" font-size="15" font-weight="400" fill="#6b7280" text-anchor="start" dominant-baseline="auto">time</text>
<g class="fragment" data-fragment-index="0">
<rect x="250.0" y="70.0" width="46.0" height="40.0" rx="3" fill="#dcfce7" stroke="#0b5cad" stroke-width="1.4"/>
<rect x="304.0" y="70.0" width="46.0" height="40.0" rx="3" fill="#dcfce7" stroke="#0b5cad" stroke-width="1.4"/>
<rect x="358.0" y="70.0" width="46.0" height="40.0" rx="3" fill="#dcfce7" stroke="#0b5cad" stroke-width="1.4"/>
<line x1="381.0" y1="58.0" x2="381.0" y2="354.0" stroke="#15803d" stroke-width="1.4" stroke-dasharray="5 4"/>
<text x="381.0" y="48.0" font-size="15" font-weight="400" fill="#15803d" text-anchor="middle" dominant-baseline="auto">output emitted here</text>
</g>
<g class="fragment" data-fragment-index="1">
<rect x="250.0" y="148.0" width="46.0" height="40.0" rx="3" fill="#dbeafe" stroke="#0b5cad" stroke-width="1.4"/>
<rect x="304.0" y="148.0" width="46.0" height="40.0" rx="3" fill="#dbeafe" stroke="#0b5cad" stroke-width="1.4"/>
<rect x="358.0" y="148.0" width="46.0" height="40.0" rx="3" fill="#dbeafe" stroke="#0b5cad" stroke-width="1.4"/>
<rect x="412.0" y="148.0" width="46.0" height="40.0" rx="3" fill="#dbeafe" stroke="#0b5cad" stroke-width="1.4"/>
<rect x="466.0" y="148.0" width="46.0" height="40.0" rx="3" fill="#dbeafe" stroke="#0b5cad" stroke-width="1.4"/>
<line x1="404.0" y1="110.0" x2="404.0" y2="129.0" stroke="#dc2626" stroke-width="2"/>
<line x1="404.0" y1="129.0" x2="512.0" y2="129.0" stroke="#dc2626" stroke-width="2"/>
<line x1="512.0" y1="129.0" x2="512.0" y2="148.0" stroke="#dc2626" stroke-width="2"/>
<svg x="433.475" y="111.483" width="49.05" height="14.5172" viewBox="0 0 49.05 14.517187"><defs>
  <style type="text/css">*{stroke-linejoin: round; stroke-linecap: butt}</style>
 </defs>
 <g id="t7-figure_1">
  <g id="t7-patch_1">
   <path d="M 0 14.517187 
L 49.05 14.517187 
L 49.05 -0 
L 0 -0 
L 0 14.517187 
z
" style="fill: none"/>
  </g>
  <g id="t7-text_1">
   <!-- $+r_3 = 2$ -->
   <g style="fill: #dc2626" transform="translate(0 11.397656) scale(0.15 -0.15)">
    <defs>
     <path id="t7-Cmr10-2b" d="M 481 1472 
Q 428 1472 393 1512 
Q 359 1553 359 1600 
Q 359 1647 393 1687 
Q 428 1728 481 1728 
L 2363 1728 
L 2363 3616 
Q 2363 3666 2400 3698 
Q 2438 3731 2491 3731 
Q 2538 3731 2578 3698 
Q 2619 3666 2619 3616 
L 2619 1728 
L 4500 1728 
Q 4547 1728 4581 1687 
Q 4616 1647 4616 1600 
Q 4616 1553 4581 1512 
Q 4547 1472 4500 1472 
L 2619 1472 
L 2619 -416 
Q 2619 -466 2578 -498 
Q 2538 -531 2491 -531 
Q 2438 -531 2400 -498 
Q 2363 -466 2363 -416 
L 2363 1472 
L 481 1472 
z
" transform="scale(0.015625)"/>
     <path id="t7-Cmmi10-72" d="M 494 109 
Q 494 147 500 166 
L 978 2075 
Q 1025 2253 1025 2388 
Q 1025 2663 838 2663 
Q 638 2663 541 2423 
Q 444 2184 353 1819 
Q 353 1800 334 1789 
Q 316 1778 300 1778 
L 225 1778 
Q 203 1778 187 1801 
Q 172 1825 172 1844 
Q 241 2122 305 2315 
Q 369 2509 505 2668 
Q 641 2828 844 2828 
Q 1066 2828 1233 2700 
Q 1400 2572 1441 2363 
Q 1603 2575 1811 2701 
Q 2019 2828 2266 2828 
Q 2469 2828 2623 2709 
Q 2778 2591 2778 2388 
Q 2778 2225 2676 2104 
Q 2575 1984 2406 1984 
Q 2303 1984 2233 2048 
Q 2163 2113 2163 2216 
Q 2163 2356 2266 2467 
Q 2369 2578 2503 2578 
Q 2400 2663 2253 2663 
Q 1978 2663 1775 2467 
Q 1572 2272 1409 1972 
L 953 141 
Q 931 53 854 -9 
Q 778 -72 684 -72 
Q 606 -72 550 -22 
Q 494 28 494 109 
z
" transform="scale(0.015625)"/>
     <path id="t7-Cmr10-33" d="M 609 494 
Q 759 275 1012 169 
Q 1266 63 1556 63 
Q 1928 63 2084 380 
Q 2241 697 2241 1100 
Q 2241 1281 2208 1462 
Q 2175 1644 2097 1800 
Q 2019 1956 1883 2050 
Q 1747 2144 1550 2144 
L 1125 2144 
Q 1069 2144 1069 2203 
L 1069 2259 
Q 1069 2309 1125 2309 
L 1478 2338 
Q 1703 2338 1851 2506 
Q 2000 2675 2069 2917 
Q 2138 3159 2138 3378 
Q 2138 3684 1994 3881 
Q 1850 4078 1556 4078 
Q 1313 4078 1091 3986 
Q 869 3894 738 3706 
Q 750 3709 759 3711 
Q 769 3713 781 3713 
Q 925 3713 1022 3613 
Q 1119 3513 1119 3372 
Q 1119 3234 1022 3134 
Q 925 3034 781 3034 
Q 641 3034 541 3134 
Q 441 3234 441 3372 
Q 441 3647 606 3850 
Q 772 4053 1033 4158 
Q 1294 4263 1556 4263 
Q 1750 4263 1965 4205 
Q 2181 4147 2356 4039 
Q 2531 3931 2642 3762 
Q 2753 3594 2753 3378 
Q 2753 3109 2633 2881 
Q 2513 2653 2303 2487 
Q 2094 2322 1844 2241 
Q 2122 2188 2372 2031 
Q 2622 1875 2773 1631 
Q 2925 1388 2925 1106 
Q 2925 753 2731 467 
Q 2538 181 2222 20 
Q 1906 -141 1556 -141 
Q 1256 -141 954 -26 
Q 653 88 461 316 
Q 269 544 269 863 
Q 269 1022 375 1128 
Q 481 1234 641 1234 
Q 744 1234 830 1186 
Q 916 1138 964 1050 
Q 1013 963 1013 863 
Q 1013 706 903 600 
Q 794 494 641 494 
L 609 494 
z
" transform="scale(0.015625)"/>
     <path id="t7-Cmr10-3d" d="M 481 850 
Q 428 850 393 890 
Q 359 931 359 978 
Q 359 1031 393 1068 
Q 428 1106 481 1106 
L 4500 1106 
Q 4547 1106 4581 1068 
Q 4616 1031 4616 978 
Q 4616 931 4581 890 
Q 4547 850 4500 850 
L 481 850 
z
M 481 2094 
Q 428 2094 393 2131 
Q 359 2169 359 2222 
Q 359 2269 393 2309 
Q 428 2350 481 2350 
L 4500 2350 
Q 4547 2350 4581 2309 
Q 4616 2269 4616 2222 
Q 4616 2169 4581 2131 
Q 4547 2094 4500 2094 
L 481 2094 
z
" transform="scale(0.015625)"/>
     <path id="t7-Cmr10-32" d="M 319 0 
L 319 172 
Q 319 188 331 206 
L 1325 1306 
Q 1550 1550 1690 1715 
Q 1831 1881 1968 2097 
Q 2106 2313 2186 2536 
Q 2266 2759 2266 3009 
Q 2266 3272 2169 3511 
Q 2072 3750 1880 3894 
Q 1688 4038 1416 4038 
Q 1138 4038 916 3870 
Q 694 3703 603 3438 
Q 628 3444 672 3444 
Q 816 3444 917 3347 
Q 1019 3250 1019 3097 
Q 1019 2950 917 2848 
Q 816 2747 672 2747 
Q 522 2747 420 2851 
Q 319 2956 319 3097 
Q 319 3338 409 3548 
Q 500 3759 670 3923 
Q 841 4088 1055 4175 
Q 1269 4263 1509 4263 
Q 1875 4263 2190 4108 
Q 2506 3953 2690 3670 
Q 2875 3388 2875 3009 
Q 2875 2731 2753 2481 
Q 2631 2231 2440 2026 
Q 2250 1822 1953 1562 
Q 1656 1303 1563 1216 
L 838 519 
L 1453 519 
Q 1906 519 2211 526 
Q 2516 534 2534 550 
Q 2609 631 2688 1141 
L 2875 1141 
L 2694 0 
L 319 0 
z
" transform="scale(0.015625)"/>
    </defs>
    <use xlink:href="#t7-Cmr10-2b" transform="translate(0 0.390625)"/>
    <use xlink:href="#t7-Cmmi10-72" transform="translate(77.685547 0.390625)"/>
    <use xlink:href="#t7-Cmr10-33" transform="translate(122.802734 -16.615625) scale(0.7)"/>
    <use xlink:href="#t7-Cmr10-3d" transform="translate(181.738672 0.390625)"/>
    <use xlink:href="#t7-Cmr10-32" transform="translate(276.982813 0.390625)"/>
   </g>
  </g>
 </g>
</svg>
</g>
<g class="fragment" data-fragment-index="2">
<rect x="250.0" y="226.0" width="46.0" height="40.0" rx="3" fill="#dbeafe" stroke="#0b5cad" stroke-width="1.4"/>
<rect x="304.0" y="226.0" width="46.0" height="40.0" rx="3" fill="#dbeafe" stroke="#0b5cad" stroke-width="1.4"/>
<rect x="358.0" y="226.0" width="46.0" height="40.0" rx="3" fill="#dbeafe" stroke="#0b5cad" stroke-width="1.4"/>
<rect x="412.0" y="226.0" width="46.0" height="40.0" rx="3" fill="#dbeafe" stroke="#0b5cad" stroke-width="1.4"/>
<rect x="466.0" y="226.0" width="46.0" height="40.0" rx="3" fill="#dbeafe" stroke="#0b5cad" stroke-width="1.4"/>
<rect x="520.0" y="226.0" width="46.0" height="40.0" rx="3" fill="#dbeafe" stroke="#0b5cad" stroke-width="1.4"/>
<rect x="574.0" y="226.0" width="46.0" height="40.0" rx="3" fill="#dbeafe" stroke="#0b5cad" stroke-width="1.4"/>
<line x1="512.0" y1="188.0" x2="512.0" y2="207.0" stroke="#dc2626" stroke-width="2"/>
<line x1="512.0" y1="207.0" x2="620.0" y2="207.0" stroke="#dc2626" stroke-width="2"/>
<line x1="620.0" y1="207.0" x2="620.0" y2="226.0" stroke="#dc2626" stroke-width="2"/>
<svg x="541.475" y="189.483" width="49.05" height="14.5172" viewBox="0 0 49.05 14.517187"><defs>
  <style type="text/css">*{stroke-linejoin: round; stroke-linecap: butt}</style>
 </defs>
 <g id="t8-figure_1">
  <g id="t8-patch_1">
   <path d="M 0 14.517187 
L 49.05 14.517187 
L 49.05 -0 
L 0 -0 
L 0 14.517187 
z
" style="fill: none"/>
  </g>
  <g id="t8-text_1">
   <!-- $+r_2 = 2$ -->
   <g style="fill: #dc2626" transform="translate(0 11.397656) scale(0.15 -0.15)">
    <defs>
     <path id="t8-Cmr10-2b" d="M 481 1472 
Q 428 1472 393 1512 
Q 359 1553 359 1600 
Q 359 1647 393 1687 
Q 428 1728 481 1728 
L 2363 1728 
L 2363 3616 
Q 2363 3666 2400 3698 
Q 2438 3731 2491 3731 
Q 2538 3731 2578 3698 
Q 2619 3666 2619 3616 
L 2619 1728 
L 4500 1728 
Q 4547 1728 4581 1687 
Q 4616 1647 4616 1600 
Q 4616 1553 4581 1512 
Q 4547 1472 4500 1472 
L 2619 1472 
L 2619 -416 
Q 2619 -466 2578 -498 
Q 2538 -531 2491 -531 
Q 2438 -531 2400 -498 
Q 2363 -466 2363 -416 
L 2363 1472 
L 481 1472 
z
" transform="scale(0.015625)"/>
     <path id="t8-Cmmi10-72" d="M 494 109 
Q 494 147 500 166 
L 978 2075 
Q 1025 2253 1025 2388 
Q 1025 2663 838 2663 
Q 638 2663 541 2423 
Q 444 2184 353 1819 
Q 353 1800 334 1789 
Q 316 1778 300 1778 
L 225 1778 
Q 203 1778 187 1801 
Q 172 1825 172 1844 
Q 241 2122 305 2315 
Q 369 2509 505 2668 
Q 641 2828 844 2828 
Q 1066 2828 1233 2700 
Q 1400 2572 1441 2363 
Q 1603 2575 1811 2701 
Q 2019 2828 2266 2828 
Q 2469 2828 2623 2709 
Q 2778 2591 2778 2388 
Q 2778 2225 2676 2104 
Q 2575 1984 2406 1984 
Q 2303 1984 2233 2048 
Q 2163 2113 2163 2216 
Q 2163 2356 2266 2467 
Q 2369 2578 2503 2578 
Q 2400 2663 2253 2663 
Q 1978 2663 1775 2467 
Q 1572 2272 1409 1972 
L 953 141 
Q 931 53 854 -9 
Q 778 -72 684 -72 
Q 606 -72 550 -22 
Q 494 28 494 109 
z
" transform="scale(0.015625)"/>
     <path id="t8-Cmr10-32" d="M 319 0 
L 319 172 
Q 319 188 331 206 
L 1325 1306 
Q 1550 1550 1690 1715 
Q 1831 1881 1968 2097 
Q 2106 2313 2186 2536 
Q 2266 2759 2266 3009 
Q 2266 3272 2169 3511 
Q 2072 3750 1880 3894 
Q 1688 4038 1416 4038 
Q 1138 4038 916 3870 
Q 694 3703 603 3438 
Q 628 3444 672 3444 
Q 816 3444 917 3347 
Q 1019 3250 1019 3097 
Q 1019 2950 917 2848 
Q 816 2747 672 2747 
Q 522 2747 420 2851 
Q 319 2956 319 3097 
Q 319 3338 409 3548 
Q 500 3759 670 3923 
Q 841 4088 1055 4175 
Q 1269 4263 1509 4263 
Q 1875 4263 2190 4108 
Q 2506 3953 2690 3670 
Q 2875 3388 2875 3009 
Q 2875 2731 2753 2481 
Q 2631 2231 2440 2026 
Q 2250 1822 1953 1562 
Q 1656 1303 1563 1216 
L 838 519 
L 1453 519 
Q 1906 519 2211 526 
Q 2516 534 2534 550 
Q 2609 631 2688 1141 
L 2875 1141 
L 2694 0 
L 319 0 
z
" transform="scale(0.015625)"/>
     <path id="t8-Cmr10-3d" d="M 481 850 
Q 428 850 393 890 
Q 359 931 359 978 
Q 359 1031 393 1068 
Q 428 1106 481 1106 
L 4500 1106 
Q 4547 1106 4581 1068 
Q 4616 1031 4616 978 
Q 4616 931 4581 890 
Q 4547 850 4500 850 
L 481 850 
z
M 481 2094 
Q 428 2094 393 2131 
Q 359 2169 359 2222 
Q 359 2269 393 2309 
Q 428 2350 481 2350 
L 4500 2350 
Q 4547 2350 4581 2309 
Q 4616 2269 4616 2222 
Q 4616 2169 4581 2131 
Q 4547 2094 4500 2094 
L 481 2094 
z
" transform="scale(0.015625)"/>
    </defs>
    <use xlink:href="#t8-Cmr10-2b" transform="translate(0 0.390625)"/>
    <use xlink:href="#t8-Cmmi10-72" transform="translate(77.685547 0.390625)"/>
    <use xlink:href="#t8-Cmr10-32" transform="translate(122.802734 -16.615625) scale(0.7)"/>
    <use xlink:href="#t8-Cmr10-3d" transform="translate(181.738672 0.390625)"/>
    <use xlink:href="#t8-Cmr10-32" transform="translate(276.982813 0.390625)"/>
   </g>
  </g>
 </g>
</svg>
</g>
<g class="fragment" data-fragment-index="3">
<rect x="250.0" y="304.0" width="46.0" height="40.0" rx="3" fill="#dbeafe" stroke="#0b5cad" stroke-width="1.4"/>
<rect x="304.0" y="304.0" width="46.0" height="40.0" rx="3" fill="#dbeafe" stroke="#0b5cad" stroke-width="1.4"/>
<rect x="358.0" y="304.0" width="46.0" height="40.0" rx="3" fill="#dbeafe" stroke="#0b5cad" stroke-width="1.4"/>
<rect x="412.0" y="304.0" width="46.0" height="40.0" rx="3" fill="#dbeafe" stroke="#0b5cad" stroke-width="1.4"/>
<rect x="466.0" y="304.0" width="46.0" height="40.0" rx="3" fill="#dbeafe" stroke="#0b5cad" stroke-width="1.4"/>
<rect x="520.0" y="304.0" width="46.0" height="40.0" rx="3" fill="#dbeafe" stroke="#0b5cad" stroke-width="1.4"/>
<rect x="574.0" y="304.0" width="46.0" height="40.0" rx="3" fill="#dbeafe" stroke="#0b5cad" stroke-width="1.4"/>
<rect x="628.0" y="304.0" width="46.0" height="40.0" rx="3" fill="#dbeafe" stroke="#0b5cad" stroke-width="1.4"/>
<rect x="682.0" y="304.0" width="46.0" height="40.0" rx="3" fill="#dbeafe" stroke="#0b5cad" stroke-width="1.4"/>
<line x1="620.0" y1="266.0" x2="620.0" y2="285.0" stroke="#dc2626" stroke-width="2"/>
<line x1="620.0" y1="285.0" x2="728.0" y2="285.0" stroke="#dc2626" stroke-width="2"/>
<line x1="728.0" y1="285.0" x2="728.0" y2="304.0" stroke="#dc2626" stroke-width="2"/>
<svg x="649.475" y="267.483" width="49.05" height="14.5172" viewBox="0 0 49.05 14.517187"><defs>
  <style type="text/css">*{stroke-linejoin: round; stroke-linecap: butt}</style>
 </defs>
 <g id="t9-figure_1">
  <g id="t9-patch_1">
   <path d="M 0 14.517187 
L 49.05 14.517187 
L 49.05 -0 
L 0 -0 
L 0 14.517187 
z
" style="fill: none"/>
  </g>
  <g id="t9-text_1">
   <!-- $+r_1 = 2$ -->
   <g style="fill: #dc2626" transform="translate(0 11.397656) scale(0.15 -0.15)">
    <defs>
     <path id="t9-Cmr10-2b" d="M 481 1472 
Q 428 1472 393 1512 
Q 359 1553 359 1600 
Q 359 1647 393 1687 
Q 428 1728 481 1728 
L 2363 1728 
L 2363 3616 
Q 2363 3666 2400 3698 
Q 2438 3731 2491 3731 
Q 2538 3731 2578 3698 
Q 2619 3666 2619 3616 
L 2619 1728 
L 4500 1728 
Q 4547 1728 4581 1687 
Q 4616 1647 4616 1600 
Q 4616 1553 4581 1512 
Q 4547 1472 4500 1472 
L 2619 1472 
L 2619 -416 
Q 2619 -466 2578 -498 
Q 2538 -531 2491 -531 
Q 2438 -531 2400 -498 
Q 2363 -466 2363 -416 
L 2363 1472 
L 481 1472 
z
" transform="scale(0.015625)"/>
     <path id="t9-Cmmi10-72" d="M 494 109 
Q 494 147 500 166 
L 978 2075 
Q 1025 2253 1025 2388 
Q 1025 2663 838 2663 
Q 638 2663 541 2423 
Q 444 2184 353 1819 
Q 353 1800 334 1789 
Q 316 1778 300 1778 
L 225 1778 
Q 203 1778 187 1801 
Q 172 1825 172 1844 
Q 241 2122 305 2315 
Q 369 2509 505 2668 
Q 641 2828 844 2828 
Q 1066 2828 1233 2700 
Q 1400 2572 1441 2363 
Q 1603 2575 1811 2701 
Q 2019 2828 2266 2828 
Q 2469 2828 2623 2709 
Q 2778 2591 2778 2388 
Q 2778 2225 2676 2104 
Q 2575 1984 2406 1984 
Q 2303 1984 2233 2048 
Q 2163 2113 2163 2216 
Q 2163 2356 2266 2467 
Q 2369 2578 2503 2578 
Q 2400 2663 2253 2663 
Q 1978 2663 1775 2467 
Q 1572 2272 1409 1972 
L 953 141 
Q 931 53 854 -9 
Q 778 -72 684 -72 
Q 606 -72 550 -22 
Q 494 28 494 109 
z
" transform="scale(0.015625)"/>
     <path id="t9-Cmr10-31" d="M 594 0 
L 594 225 
Q 1394 225 1394 428 
L 1394 3788 
Q 1063 3628 556 3628 
L 556 3853 
Q 1341 3853 1741 4263 
L 1831 4263 
Q 1853 4263 1873 4245 
Q 1894 4228 1894 4206 
L 1894 428 
Q 1894 225 2694 225 
L 2694 0 
L 594 0 
z
" transform="scale(0.015625)"/>
     <path id="t9-Cmr10-3d" d="M 481 850 
Q 428 850 393 890 
Q 359 931 359 978 
Q 359 1031 393 1068 
Q 428 1106 481 1106 
L 4500 1106 
Q 4547 1106 4581 1068 
Q 4616 1031 4616 978 
Q 4616 931 4581 890 
Q 4547 850 4500 850 
L 481 850 
z
M 481 2094 
Q 428 2094 393 2131 
Q 359 2169 359 2222 
Q 359 2269 393 2309 
Q 428 2350 481 2350 
L 4500 2350 
Q 4547 2350 4581 2309 
Q 4616 2269 4616 2222 
Q 4616 2169 4581 2131 
Q 4547 2094 4500 2094 
L 481 2094 
z
" transform="scale(0.015625)"/>
     <path id="t9-Cmr10-32" d="M 319 0 
L 319 172 
Q 319 188 331 206 
L 1325 1306 
Q 1550 1550 1690 1715 
Q 1831 1881 1968 2097 
Q 2106 2313 2186 2536 
Q 2266 2759 2266 3009 
Q 2266 3272 2169 3511 
Q 2072 3750 1880 3894 
Q 1688 4038 1416 4038 
Q 1138 4038 916 3870 
Q 694 3703 603 3438 
Q 628 3444 672 3444 
Q 816 3444 917 3347 
Q 1019 3250 1019 3097 
Q 1019 2950 917 2848 
Q 816 2747 672 2747 
Q 522 2747 420 2851 
Q 319 2956 319 3097 
Q 319 3338 409 3548 
Q 500 3759 670 3923 
Q 841 4088 1055 4175 
Q 1269 4263 1509 4263 
Q 1875 4263 2190 4108 
Q 2506 3953 2690 3670 
Q 2875 3388 2875 3009 
Q 2875 2731 2753 2481 
Q 2631 2231 2440 2026 
Q 2250 1822 1953 1562 
Q 1656 1303 1563 1216 
L 838 519 
L 1453 519 
Q 1906 519 2211 526 
Q 2516 534 2534 550 
Q 2609 631 2688 1141 
L 2875 1141 
L 2694 0 
L 319 0 
z
" transform="scale(0.015625)"/>
    </defs>
    <use xlink:href="#t9-Cmr10-2b" transform="translate(0 0.390625)"/>
    <use xlink:href="#t9-Cmmi10-72" transform="translate(77.685547 0.390625)"/>
    <use xlink:href="#t9-Cmr10-31" transform="translate(122.802734 -16.615625) scale(0.7)"/>
    <use xlink:href="#t9-Cmr10-3d" transform="translate(181.738672 0.390625)"/>
    <use xlink:href="#t9-Cmr10-32" transform="translate(276.982813 0.390625)"/>
   </g>
  </g>
 </g>
</svg>
<line x1="705.0" y1="58.0" x2="705.0" y2="354.0" stroke="#dc2626" stroke-width="1.4" stroke-dasharray="5 4"/>
<text x="705.0" y="48.0" font-size="15" font-weight="400" fill="#dc2626" text-anchor="middle" dominant-baseline="auto">last input frame needed</text>
</g>
<g class="fragment" data-fragment-index="4">
<svg x="784" y="133.708" width="140.8" height="21.2919" viewBox="0 0 140.8 21.291875"><defs>
  <style type="text/css">*{stroke-linejoin: round; stroke-linecap: butt}</style>
 </defs>
 <g id="t10-figure_1">
  <g id="t10-patch_1">
   <path d="M 0 21.291875 
L 140.8 21.291875 
L 140.8 0 
L 0 0 
L 0 21.291875 
z
" style="fill: none"/>
  </g>
  <g id="t10-text_1">
   <!-- $\ell = r_1 + r_2 + r_3$ -->
   <g style="fill: #1f2328" transform="translate(0 16.716563) scale(0.22 -0.22)">
    <defs>
     <path id="t10-Cmmi10-60" d="M 153 475 
Q 125 475 94 509 
Q 63 544 63 575 
Q 63 628 594 1113 
Q 594 1141 592 1159 
Q 591 1178 588 1197 
Q 588 1472 631 1758 
Q 675 2044 751 2328 
Q 828 2613 943 2922 
Q 1059 3231 1178 3463 
Q 1384 3884 1628 4198 
Q 1872 4513 2169 4513 
Q 2372 4513 2459 4373 
Q 2547 4234 2547 4025 
Q 2547 2853 991 1269 
Q 966 994 966 878 
Q 966 78 1331 78 
Q 1488 78 1642 161 
Q 1797 244 1908 341 
Q 2019 438 2216 628 
Q 2228 641 2253 641 
Q 2288 641 2319 603 
Q 2350 566 2350 531 
Q 2350 509 2322 488 
Q 2038 209 1809 56 
Q 1581 -97 1319 -97 
Q 981 -97 817 193 
Q 653 484 609 884 
Q 438 713 191 488 
Q 184 475 153 475 
z
M 1044 1575 
Q 1384 1938 1681 2338 
Q 1978 2738 2176 3180 
Q 2375 3622 2375 4044 
Q 2375 4347 2163 4347 
Q 1934 4347 1696 3801 
Q 1459 3256 1290 2622 
Q 1122 1988 1044 1575 
z
" transform="scale(0.015625)"/>
     <path id="t10-Cmr10-3d" d="M 481 850 
Q 428 850 393 890 
Q 359 931 359 978 
Q 359 1031 393 1068 
Q 428 1106 481 1106 
L 4500 1106 
Q 4547 1106 4581 1068 
Q 4616 1031 4616 978 
Q 4616 931 4581 890 
Q 4547 850 4500 850 
L 481 850 
z
M 481 2094 
Q 428 2094 393 2131 
Q 359 2169 359 2222 
Q 359 2269 393 2309 
Q 428 2350 481 2350 
L 4500 2350 
Q 4547 2350 4581 2309 
Q 4616 2269 4616 2222 
Q 4616 2169 4581 2131 
Q 4547 2094 4500 2094 
L 481 2094 
z
" transform="scale(0.015625)"/>
     <path id="t10-Cmmi10-72" d="M 494 109 
Q 494 147 500 166 
L 978 2075 
Q 1025 2253 1025 2388 
Q 1025 2663 838 2663 
Q 638 2663 541 2423 
Q 444 2184 353 1819 
Q 353 1800 334 1789 
Q 316 1778 300 1778 
L 225 1778 
Q 203 1778 187 1801 
Q 172 1825 172 1844 
Q 241 2122 305 2315 
Q 369 2509 505 2668 
Q 641 2828 844 2828 
Q 1066 2828 1233 2700 
Q 1400 2572 1441 2363 
Q 1603 2575 1811 2701 
Q 2019 2828 2266 2828 
Q 2469 2828 2623 2709 
Q 2778 2591 2778 2388 
Q 2778 2225 2676 2104 
Q 2575 1984 2406 1984 
Q 2303 1984 2233 2048 
Q 2163 2113 2163 2216 
Q 2163 2356 2266 2467 
Q 2369 2578 2503 2578 
Q 2400 2663 2253 2663 
Q 1978 2663 1775 2467 
Q 1572 2272 1409 1972 
L 953 141 
Q 931 53 854 -9 
Q 778 -72 684 -72 
Q 606 -72 550 -22 
Q 494 28 494 109 
z
" transform="scale(0.015625)"/>
     <path id="t10-Cmr10-31" d="M 594 0 
L 594 225 
Q 1394 225 1394 428 
L 1394 3788 
Q 1063 3628 556 3628 
L 556 3853 
Q 1341 3853 1741 4263 
L 1831 4263 
Q 1853 4263 1873 4245 
Q 1894 4228 1894 4206 
L 1894 428 
Q 1894 225 2694 225 
L 2694 0 
L 594 0 
z
" transform="scale(0.015625)"/>
     <path id="t10-Cmr10-2b" d="M 481 1472 
Q 428 1472 393 1512 
Q 359 1553 359 1600 
Q 359 1647 393 1687 
Q 428 1728 481 1728 
L 2363 1728 
L 2363 3616 
Q 2363 3666 2400 3698 
Q 2438 3731 2491 3731 
Q 2538 3731 2578 3698 
Q 2619 3666 2619 3616 
L 2619 1728 
L 4500 1728 
Q 4547 1728 4581 1687 
Q 4616 1647 4616 1600 
Q 4616 1553 4581 1512 
Q 4547 1472 4500 1472 
L 2619 1472 
L 2619 -416 
Q 2619 -466 2578 -498 
Q 2538 -531 2491 -531 
Q 2438 -531 2400 -498 
Q 2363 -466 2363 -416 
L 2363 1472 
L 481 1472 
z
" transform="scale(0.015625)"/>
     <path id="t10-Cmr10-32" d="M 319 0 
L 319 172 
Q 319 188 331 206 
L 1325 1306 
Q 1550 1550 1690 1715 
Q 1831 1881 1968 2097 
Q 2106 2313 2186 2536 
Q 2266 2759 2266 3009 
Q 2266 3272 2169 3511 
Q 2072 3750 1880 3894 
Q 1688 4038 1416 4038 
Q 1138 4038 916 3870 
Q 694 3703 603 3438 
Q 628 3444 672 3444 
Q 816 3444 917 3347 
Q 1019 3250 1019 3097 
Q 1019 2950 917 2848 
Q 816 2747 672 2747 
Q 522 2747 420 2851 
Q 319 2956 319 3097 
Q 319 3338 409 3548 
Q 500 3759 670 3923 
Q 841 4088 1055 4175 
Q 1269 4263 1509 4263 
Q 1875 4263 2190 4108 
Q 2506 3953 2690 3670 
Q 2875 3388 2875 3009 
Q 2875 2731 2753 2481 
Q 2631 2231 2440 2026 
Q 2250 1822 1953 1562 
Q 1656 1303 1563 1216 
L 838 519 
L 1453 519 
Q 1906 519 2211 526 
Q 2516 534 2534 550 
Q 2609 631 2688 1141 
L 2875 1141 
L 2694 0 
L 319 0 
z
" transform="scale(0.015625)"/>
     <path id="t10-Cmr10-33" d="M 609 494 
Q 759 275 1012 169 
Q 1266 63 1556 63 
Q 1928 63 2084 380 
Q 2241 697 2241 1100 
Q 2241 1281 2208 1462 
Q 2175 1644 2097 1800 
Q 2019 1956 1883 2050 
Q 1747 2144 1550 2144 
L 1125 2144 
Q 1069 2144 1069 2203 
L 1069 2259 
Q 1069 2309 1125 2309 
L 1478 2338 
Q 1703 2338 1851 2506 
Q 2000 2675 2069 2917 
Q 2138 3159 2138 3378 
Q 2138 3684 1994 3881 
Q 1850 4078 1556 4078 
Q 1313 4078 1091 3986 
Q 869 3894 738 3706 
Q 750 3709 759 3711 
Q 769 3713 781 3713 
Q 925 3713 1022 3613 
Q 1119 3513 1119 3372 
Q 1119 3234 1022 3134 
Q 925 3034 781 3034 
Q 641 3034 541 3134 
Q 441 3234 441 3372 
Q 441 3647 606 3850 
Q 772 4053 1033 4158 
Q 1294 4263 1556 4263 
Q 1750 4263 1965 4205 
Q 2181 4147 2356 4039 
Q 2531 3931 2642 3762 
Q 2753 3594 2753 3378 
Q 2753 3109 2633 2881 
Q 2513 2653 2303 2487 
Q 2094 2322 1844 2241 
Q 2122 2188 2372 2031 
Q 2622 1875 2773 1631 
Q 2925 1388 2925 1106 
Q 2925 753 2731 467 
Q 2538 181 2222 20 
Q 1906 -141 1556 -141 
Q 1256 -141 954 -26 
Q 653 88 461 316 
Q 269 544 269 863 
Q 269 1022 375 1128 
Q 481 1234 641 1234 
Q 744 1234 830 1186 
Q 916 1138 964 1050 
Q 1013 963 1013 863 
Q 1013 706 903 600 
Q 794 494 641 494 
L 609 494 
z
" transform="scale(0.015625)"/>
    </defs>
    <use xlink:href="#t10-Cmmi10-60" transform="translate(0 0.484375)"/>
    <use xlink:href="#t10-Cmr10-3d" transform="translate(59.160156 0.484375)"/>
    <use xlink:href="#t10-Cmmi10-72" transform="translate(154.404297 0.484375)"/>
    <use xlink:href="#t10-Cmr10-31" transform="translate(199.521484 -16.521875) scale(0.7)"/>
    <use xlink:href="#t10-Cmr10-2b" transform="translate(258.457422 0.484375)"/>
    <use xlink:href="#t10-Cmmi10-72" transform="translate(353.701563 0.484375)"/>
    <use xlink:href="#t10-Cmr10-32" transform="translate(398.81875 -16.521875) scale(0.7)"/>
    <use xlink:href="#t10-Cmr10-2b" transform="translate(457.754688 0.484375)"/>
    <use xlink:href="#t10-Cmmi10-72" transform="translate(552.998828 0.484375)"/>
    <use xlink:href="#t10-Cmr10-33" transform="translate(598.116016 -16.521875) scale(0.7)"/>
   </g>
  </g>
 </g>
</svg>
<svg x="784" y="166.644" width="191.2" height="19.3562" viewBox="0 0 191.2 19.35625"><defs>
  <style type="text/css">*{stroke-linejoin: round; stroke-linecap: butt}</style>
 </defs>
 <g id="t11-figure_1">
  <g id="t11-patch_1">
   <path d="M 0 19.35625 
L 191.2 19.35625 
L 191.2 0 
L 0 0 
L 0 19.35625 
z
" style="fill: none"/>
  </g>
  <g id="t11-text_1">
   <!-- $= 2 + 2 + 2 = 6\ \mathsf{frames}$ -->
   <g style="fill: #1f2328" transform="translate(0 15.196875) scale(0.2 -0.2)">
    <defs>
     <path id="t11-Cmr10-3d" d="M 481 850 
Q 428 850 393 890 
Q 359 931 359 978 
Q 359 1031 393 1068 
Q 428 1106 481 1106 
L 4500 1106 
Q 4547 1106 4581 1068 
Q 4616 1031 4616 978 
Q 4616 931 4581 890 
Q 4547 850 4500 850 
L 481 850 
z
M 481 2094 
Q 428 2094 393 2131 
Q 359 2169 359 2222 
Q 359 2269 393 2309 
Q 428 2350 481 2350 
L 4500 2350 
Q 4547 2350 4581 2309 
Q 4616 2269 4616 2222 
Q 4616 2169 4581 2131 
Q 4547 2094 4500 2094 
L 481 2094 
z
" transform="scale(0.015625)"/>
     <path id="t11-Cmr10-32" d="M 319 0 
L 319 172 
Q 319 188 331 206 
L 1325 1306 
Q 1550 1550 1690 1715 
Q 1831 1881 1968 2097 
Q 2106 2313 2186 2536 
Q 2266 2759 2266 3009 
Q 2266 3272 2169 3511 
Q 2072 3750 1880 3894 
Q 1688 4038 1416 4038 
Q 1138 4038 916 3870 
Q 694 3703 603 3438 
Q 628 3444 672 3444 
Q 816 3444 917 3347 
Q 1019 3250 1019 3097 
Q 1019 2950 917 2848 
Q 816 2747 672 2747 
Q 522 2747 420 2851 
Q 319 2956 319 3097 
Q 319 3338 409 3548 
Q 500 3759 670 3923 
Q 841 4088 1055 4175 
Q 1269 4263 1509 4263 
Q 1875 4263 2190 4108 
Q 2506 3953 2690 3670 
Q 2875 3388 2875 3009 
Q 2875 2731 2753 2481 
Q 2631 2231 2440 2026 
Q 2250 1822 1953 1562 
Q 1656 1303 1563 1216 
L 838 519 
L 1453 519 
Q 1906 519 2211 526 
Q 2516 534 2534 550 
Q 2609 631 2688 1141 
L 2875 1141 
L 2694 0 
L 319 0 
z
" transform="scale(0.015625)"/>
     <path id="t11-Cmr10-2b" d="M 481 1472 
Q 428 1472 393 1512 
Q 359 1553 359 1600 
Q 359 1647 393 1687 
Q 428 1728 481 1728 
L 2363 1728 
L 2363 3616 
Q 2363 3666 2400 3698 
Q 2438 3731 2491 3731 
Q 2538 3731 2578 3698 
Q 2619 3666 2619 3616 
L 2619 1728 
L 4500 1728 
Q 4547 1728 4581 1687 
Q 4616 1647 4616 1600 
Q 4616 1553 4581 1512 
Q 4547 1472 4500 1472 
L 2619 1472 
L 2619 -416 
Q 2619 -466 2578 -498 
Q 2538 -531 2491 -531 
Q 2438 -531 2400 -498 
Q 2363 -466 2363 -416 
L 2363 1472 
L 481 1472 
z
" transform="scale(0.015625)"/>
     <path id="t11-Cmr10-36" d="M 1600 -141 
Q 1203 -141 937 70 
Q 672 281 526 617 
Q 381 953 325 1322 
Q 269 1691 269 2069 
Q 269 2575 466 3084 
Q 663 3594 1045 3928 
Q 1428 4263 1953 4263 
Q 2172 4263 2361 4180 
Q 2550 4097 2658 3936 
Q 2766 3775 2766 3547 
Q 2766 3416 2677 3327 
Q 2588 3238 2456 3238 
Q 2331 3238 2240 3328 
Q 2150 3419 2150 3547 
Q 2150 3672 2240 3762 
Q 2331 3853 2456 3853 
L 2491 3853 
Q 2409 3969 2261 4023 
Q 2113 4078 1953 4078 
Q 1759 4078 1595 3993 
Q 1431 3909 1300 3765 
Q 1169 3622 1081 3448 
Q 994 3275 945 3053 
Q 897 2831 884 2637 
Q 872 2444 872 2150 
Q 984 2413 1190 2580 
Q 1397 2747 1656 2747 
Q 1941 2747 2175 2631 
Q 2409 2516 2578 2311 
Q 2747 2106 2836 1843 
Q 2925 1581 2925 1313 
Q 2925 938 2758 598 
Q 2591 259 2287 59 
Q 1984 -141 1600 -141 
z
M 1600 63 
Q 1847 63 1997 175 
Q 2147 288 2217 473 
Q 2288 659 2305 848 
Q 2322 1038 2322 1313 
Q 2322 1675 2287 1931 
Q 2253 2188 2100 2383 
Q 1947 2578 1631 2578 
Q 1372 2578 1205 2403 
Q 1038 2228 961 1961 
Q 884 1694 884 1447 
Q 884 1363 891 1319 
Q 891 1309 889 1303 
Q 888 1297 884 1288 
Q 884 1013 940 731 
Q 997 450 1156 256 
Q 1316 63 1600 63 
z
" transform="scale(0.015625)"/>
     <path id="t11-Cmss10-66" d="M 634 0 
L 634 2444 
L 172 2444 
L 172 2841 
L 634 2841 
L 634 3438 
Q 634 3722 775 3969 
Q 916 4216 1159 4364 
Q 1403 4513 1684 4513 
Q 1784 4513 1990 4491 
Q 2197 4469 2222 4441 
L 2222 3988 
Q 2097 4044 1967 4070 
Q 1838 4097 1684 4097 
Q 1475 4097 1297 3976 
Q 1119 3856 1119 3653 
L 1119 2841 
L 1831 2841 
L 1831 2444 
L 1141 2444 
L 1141 0 
L 634 0 
z
" transform="scale(0.015625)"/>
     <path id="t11-Cmss10-72" d="M 513 0 
L 513 2881 
L 984 2881 
L 984 2328 
Q 1109 2503 1287 2637 
Q 1466 2772 1670 2842 
Q 1875 2913 2094 2913 
L 2094 2456 
Q 1809 2456 1561 2315 
Q 1313 2175 1166 1933 
Q 1019 1691 1019 1403 
L 1019 0 
L 513 0 
z
" transform="scale(0.015625)"/>
     <path id="t11-Cmss10-61" d="M 972 -72 
Q 766 -72 605 48 
Q 444 169 356 359 
Q 269 550 269 763 
Q 269 1072 580 1256 
Q 891 1441 1305 1511 
Q 1719 1581 2041 1581 
L 2041 1881 
Q 2041 2128 1900 2337 
Q 1759 2547 1522 2547 
Q 1225 2547 1000 2473 
Q 775 2400 531 2222 
L 494 2675 
Q 753 2825 987 2887 
Q 1222 2950 1522 2950 
Q 1806 2950 2047 2801 
Q 2288 2653 2427 2408 
Q 2566 2163 2566 1881 
L 2566 0 
L 2059 0 
L 2059 238 
Q 1859 84 1576 6 
Q 1294 -72 972 -72 
z
M 756 763 
Q 756 566 937 456 
Q 1119 347 1331 347 
Q 1600 347 1820 467 
Q 2041 588 2041 831 
L 2041 1228 
Q 1641 1228 1198 1125 
Q 756 1022 756 763 
z
" transform="scale(0.015625)"/>
     <path id="t11-Cmss10-6d" d="M 506 0 
L 506 2881 
L 991 2881 
L 991 2444 
Q 1163 2666 1403 2789 
Q 1644 2913 1919 2913 
Q 2563 2913 2731 2400 
Q 2903 2638 3158 2775 
Q 3413 2913 3694 2913 
Q 4172 2913 4373 2644 
Q 4575 2375 4575 1881 
L 4575 0 
L 4050 0 
L 4050 1881 
Q 4050 2497 3419 2497 
Q 3206 2497 3065 2355 
Q 2925 2213 2864 2005 
Q 2803 1797 2803 1588 
L 2803 0 
L 2278 0 
L 2278 1881 
Q 2278 2203 2120 2350 
Q 1963 2497 1644 2497 
Q 1428 2497 1290 2355 
Q 1153 2213 1092 2005 
Q 1031 1797 1031 1588 
L 1031 0 
L 506 0 
z
" transform="scale(0.015625)"/>
     <path id="t11-Cmss10-65" d="M 1594 -72 
Q 1300 -72 1044 51 
Q 788 175 602 390 
Q 416 606 314 882 
Q 213 1159 213 1441 
Q 213 1806 373 2159 
Q 534 2513 831 2731 
Q 1128 2950 1503 2950 
Q 2116 2950 2386 2500 
Q 2656 2050 2656 1403 
L 684 1403 
Q 684 1150 801 904 
Q 919 659 1130 503 
Q 1341 347 1594 347 
Q 2150 347 2584 691 
L 2625 256 
Q 2491 122 2162 25 
Q 1834 -72 1594 -72 
z
M 722 1778 
L 2259 1778 
Q 2209 2103 2015 2318 
Q 1822 2534 1503 2534 
Q 1316 2534 1150 2426 
Q 984 2319 876 2145 
Q 769 1972 722 1778 
z
" transform="scale(0.015625)"/>
     <path id="t11-Cmss10-73" d="M 178 213 
L 263 672 
Q 716 359 1259 359 
Q 1494 359 1659 461 
Q 1825 563 1825 781 
Q 1825 947 1698 1053 
Q 1572 1159 1403 1191 
L 1013 1269 
Q 688 1334 450 1559 
Q 213 1784 213 2100 
Q 213 2391 353 2583 
Q 494 2775 731 2862 
Q 969 2950 1259 2950 
Q 1538 2950 1745 2904 
Q 1953 2859 2194 2747 
L 2119 2297 
Q 1888 2434 1673 2490 
Q 1459 2547 1191 2547 
Q 981 2547 836 2455 
Q 691 2363 691 2163 
Q 691 2025 800 1926 
Q 909 1828 1063 1791 
L 1491 1709 
Q 1709 1659 1895 1537 
Q 2081 1416 2192 1233 
Q 2303 1050 2303 831 
Q 2303 525 2167 323 
Q 2031 122 1798 25 
Q 1566 -72 1259 -72 
Q 684 -72 178 213 
z
" transform="scale(0.015625)"/>
    </defs>
    <use xlink:href="#t11-Cmr10-3d" transform="translate(17.558594 0.484375)"/>
    <use xlink:href="#t11-Cmr10-32" transform="translate(112.802734 0.484375)"/>
    <use xlink:href="#t11-Cmr10-2b" transform="translate(180.361328 0.484375)"/>
    <use xlink:href="#t11-Cmr10-32" transform="translate(275.605469 0.484375)"/>
    <use xlink:href="#t11-Cmr10-2b" transform="translate(343.164062 0.484375)"/>
    <use xlink:href="#t11-Cmr10-32" transform="translate(438.408203 0.484375)"/>
    <use xlink:href="#t11-Cmr10-3d" transform="translate(505.966797 0.484375)"/>
    <use xlink:href="#t11-Cmr10-36" transform="translate(601.210938 0.484375)"/>
    <use xlink:href="#t11-Cmss10-66" transform="translate(680.474968 0.484375)"/>
    <use xlink:href="#t11-Cmss10-72" transform="translate(710.992546 0.484375)"/>
    <use xlink:href="#t11-Cmss10-61" transform="translate(745.074577 0.484375)"/>
    <use xlink:href="#t11-Cmss10-6d" transform="translate(793.072624 0.484375)"/>
    <use xlink:href="#t11-Cmss10-65" transform="translate(872.467155 0.484375)"/>
    <use xlink:href="#t11-Cmss10-73" transform="translate(916.851921 0.484375)"/>
   </g>
  </g>
 </g>
</svg>
<svg x="784" y="205.579" width="161.28" height="17.4206" viewBox="0 0 161.28 17.420625"><defs>
  <style type="text/css">*{stroke-linejoin: round; stroke-linecap: butt}</style>
 </defs>
 <g id="t12-figure_1">
  <g id="t12-patch_1">
   <path d="M 0 17.420625 
L 161.28 17.420625 
L 161.28 0 
L 0 0 
L 0 17.420625 
z
" style="fill: none"/>
  </g>
  <g id="t12-text_1">
   <!-- $\mathsf{at\ } \Delta = 10\ \mathsf{ms:\ } 60\ \mathsf{ms}$ -->
   <g style="fill: #6b7280" transform="translate(0 13.677187) scale(0.18 -0.18)">
    <defs>
     <path id="t12-Cmss10-61" d="M 972 -72 
Q 766 -72 605 48 
Q 444 169 356 359 
Q 269 550 269 763 
Q 269 1072 580 1256 
Q 891 1441 1305 1511 
Q 1719 1581 2041 1581 
L 2041 1881 
Q 2041 2128 1900 2337 
Q 1759 2547 1522 2547 
Q 1225 2547 1000 2473 
Q 775 2400 531 2222 
L 494 2675 
Q 753 2825 987 2887 
Q 1222 2950 1522 2950 
Q 1806 2950 2047 2801 
Q 2288 2653 2427 2408 
Q 2566 2163 2566 1881 
L 2566 0 
L 2059 0 
L 2059 238 
Q 1859 84 1576 6 
Q 1294 -72 972 -72 
z
M 756 763 
Q 756 566 937 456 
Q 1119 347 1331 347 
Q 1600 347 1820 467 
Q 2041 588 2041 831 
L 2041 1228 
Q 1641 1228 1198 1125 
Q 756 1022 756 763 
z
" transform="scale(0.015625)"/>
     <path id="t12-Cmss10-74" d="M 1141 -72 
Q 859 -72 753 211 
Q 647 494 647 831 
L 647 2444 
L 122 2444 
L 122 2841 
L 666 2841 
L 666 3653 
L 1131 3653 
L 1131 2841 
L 2022 2841 
L 2022 2444 
L 1131 2444 
L 1131 916 
Q 1131 366 1428 366 
Q 1756 366 2016 569 
L 2125 166 
Q 1884 47 1646 -12 
Q 1409 -72 1141 -72 
z
" transform="scale(0.015625)"/>
     <path id="t12-Cmr10-a2" d="M 347 0 
Q 294 0 294 50 
Q 297 56 298 59 
Q 300 63 300 72 
L 2503 4513 
Q 2531 4581 2619 4581 
L 2706 4581 
Q 2794 4581 2822 4513 
L 5025 72 
Q 5028 66 5029 61 
Q 5031 56 5031 50 
Q 5031 0 4978 0 
L 347 0 
z
M 769 513 
L 4141 513 
L 2456 3909 
L 769 513 
z
" transform="scale(0.015625)"/>
     <path id="t12-Cmr10-3d" d="M 481 850 
Q 428 850 393 890 
Q 359 931 359 978 
Q 359 1031 393 1068 
Q 428 1106 481 1106 
L 4500 1106 
Q 4547 1106 4581 1068 
Q 4616 1031 4616 978 
Q 4616 931 4581 890 
Q 4547 850 4500 850 
L 481 850 
z
M 481 2094 
Q 428 2094 393 2131 
Q 359 2169 359 2222 
Q 359 2269 393 2309 
Q 428 2350 481 2350 
L 4500 2350 
Q 4547 2350 4581 2309 
Q 4616 2269 4616 2222 
Q 4616 2169 4581 2131 
Q 4547 2094 4500 2094 
L 481 2094 
z
" transform="scale(0.015625)"/>
     <path id="t12-Cmr10-31" d="M 594 0 
L 594 225 
Q 1394 225 1394 428 
L 1394 3788 
Q 1063 3628 556 3628 
L 556 3853 
Q 1341 3853 1741 4263 
L 1831 4263 
Q 1853 4263 1873 4245 
Q 1894 4228 1894 4206 
L 1894 428 
Q 1894 225 2694 225 
L 2694 0 
L 594 0 
z
" transform="scale(0.015625)"/>
     <path id="t12-Cmr10-30" d="M 1600 -141 
Q 816 -141 533 504 
Q 250 1150 250 2041 
Q 250 2597 351 3087 
Q 453 3578 754 3920 
Q 1056 4263 1600 4263 
Q 2022 4263 2290 4056 
Q 2559 3850 2700 3523 
Q 2841 3197 2892 2823 
Q 2944 2450 2944 2041 
Q 2944 1491 2842 1011 
Q 2741 531 2444 195 
Q 2147 -141 1600 -141 
z
M 1600 25 
Q 1956 25 2131 390 
Q 2306 756 2347 1200 
Q 2388 1644 2388 2144 
Q 2388 2625 2347 3031 
Q 2306 3438 2132 3767 
Q 1959 4097 1600 4097 
Q 1238 4097 1063 3765 
Q 888 3434 847 3029 
Q 806 2625 806 2144 
Q 806 1788 823 1472 
Q 841 1156 916 820 
Q 991 484 1158 254 
Q 1325 25 1600 25 
z
" transform="scale(0.015625)"/>
     <path id="t12-Cmss10-6d" d="M 506 0 
L 506 2881 
L 991 2881 
L 991 2444 
Q 1163 2666 1403 2789 
Q 1644 2913 1919 2913 
Q 2563 2913 2731 2400 
Q 2903 2638 3158 2775 
Q 3413 2913 3694 2913 
Q 4172 2913 4373 2644 
Q 4575 2375 4575 1881 
L 4575 0 
L 4050 0 
L 4050 1881 
Q 4050 2497 3419 2497 
Q 3206 2497 3065 2355 
Q 2925 2213 2864 2005 
Q 2803 1797 2803 1588 
L 2803 0 
L 2278 0 
L 2278 1881 
Q 2278 2203 2120 2350 
Q 1963 2497 1644 2497 
Q 1428 2497 1290 2355 
Q 1153 2213 1092 2005 
Q 1031 1797 1031 1588 
L 1031 0 
L 506 0 
z
" transform="scale(0.015625)"/>
     <path id="t12-Cmss10-73" d="M 178 213 
L 263 672 
Q 716 359 1259 359 
Q 1494 359 1659 461 
Q 1825 563 1825 781 
Q 1825 947 1698 1053 
Q 1572 1159 1403 1191 
L 1013 1269 
Q 688 1334 450 1559 
Q 213 1784 213 2100 
Q 213 2391 353 2583 
Q 494 2775 731 2862 
Q 969 2950 1259 2950 
Q 1538 2950 1745 2904 
Q 1953 2859 2194 2747 
L 2119 2297 
Q 1888 2434 1673 2490 
Q 1459 2547 1191 2547 
Q 981 2547 836 2455 
Q 691 2363 691 2163 
Q 691 2025 800 1926 
Q 909 1828 1063 1791 
L 1491 1709 
Q 1709 1659 1895 1537 
Q 2081 1416 2192 1233 
Q 2303 1050 2303 831 
Q 2303 525 2167 323 
Q 2031 122 1798 25 
Q 1566 -72 1259 -72 
Q 684 -72 178 213 
z
" transform="scale(0.015625)"/>
     <path id="t12-Cmr10-3a" d="M 538 353 
Q 538 497 644 600 
Q 750 703 891 703 
Q 978 703 1062 656 
Q 1147 609 1194 525 
Q 1241 441 1241 353 
Q 1241 213 1137 106 
Q 1034 0 891 0 
Q 750 0 644 106 
Q 538 213 538 353 
z
M 538 2406 
Q 538 2497 584 2578 
Q 631 2659 714 2709 
Q 797 2759 891 2759 
Q 981 2759 1064 2709 
Q 1147 2659 1194 2578 
Q 1241 2497 1241 2406 
Q 1241 2263 1139 2158 
Q 1038 2053 891 2053 
Q 747 2053 642 2158 
Q 538 2263 538 2406 
z
" transform="scale(0.015625)"/>
     <path id="t12-Cmr10-36" d="M 1600 -141 
Q 1203 -141 937 70 
Q 672 281 526 617 
Q 381 953 325 1322 
Q 269 1691 269 2069 
Q 269 2575 466 3084 
Q 663 3594 1045 3928 
Q 1428 4263 1953 4263 
Q 2172 4263 2361 4180 
Q 2550 4097 2658 3936 
Q 2766 3775 2766 3547 
Q 2766 3416 2677 3327 
Q 2588 3238 2456 3238 
Q 2331 3238 2240 3328 
Q 2150 3419 2150 3547 
Q 2150 3672 2240 3762 
Q 2331 3853 2456 3853 
L 2491 3853 
Q 2409 3969 2261 4023 
Q 2113 4078 1953 4078 
Q 1759 4078 1595 3993 
Q 1431 3909 1300 3765 
Q 1169 3622 1081 3448 
Q 994 3275 945 3053 
Q 897 2831 884 2637 
Q 872 2444 872 2150 
Q 984 2413 1190 2580 
Q 1397 2747 1656 2747 
Q 1941 2747 2175 2631 
Q 2409 2516 2578 2311 
Q 2747 2106 2836 1843 
Q 2925 1581 2925 1313 
Q 2925 938 2758 598 
Q 2591 259 2287 59 
Q 1984 -141 1600 -141 
z
M 1600 63 
Q 1847 63 1997 175 
Q 2147 288 2217 473 
Q 2288 659 2305 848 
Q 2322 1038 2322 1313 
Q 2322 1675 2287 1931 
Q 2253 2188 2100 2383 
Q 1947 2578 1631 2578 
Q 1372 2578 1205 2403 
Q 1038 2228 961 1961 
Q 884 1694 884 1447 
Q 884 1363 891 1319 
Q 891 1309 889 1303 
Q 888 1297 884 1288 
Q 884 1013 940 731 
Q 997 450 1156 256 
Q 1316 63 1600 63 
z
" transform="scale(0.015625)"/>
    </defs>
    <use xlink:href="#t12-Cmss10-61" transform="translate(0 0.421875)"/>
    <use xlink:href="#t12-Cmss10-74" transform="translate(47.998047 0.421875)"/>
    <use xlink:href="#t12-Cmr10-a2" transform="translate(113.346062 0.421875)"/>
    <use xlink:href="#t12-Cmr10-3d" transform="translate(214.205437 0.421875)"/>
    <use xlink:href="#t12-Cmr10-31" transform="translate(309.449577 0.421875)"/>
    <use xlink:href="#t12-Cmr10-30" transform="translate(359.449577 0.421875)"/>
    <use xlink:href="#t12-Cmss10-6d" transform="translate(438.713607 0.421875)"/>
    <use xlink:href="#t12-Cmss10-73" transform="translate(518.108139 0.421875)"/>
    <use xlink:href="#t12-Cmr10-3a" transform="translate(573.947982 0.421875)"/>
    <use xlink:href="#t12-Cmr10-36" transform="translate(648.456153 0.421875)"/>
    <use xlink:href="#t12-Cmr10-30" transform="translate(698.456153 0.421875)"/>
    <use xlink:href="#t12-Cmss10-6d" transform="translate(777.720184 0.421875)"/>
    <use xlink:href="#t12-Cmss10-73" transform="translate(857.114715 0.421875)"/>
   </g>
  </g>
 </g>
</svg>
<svg x="784" y="242.579" width="168.66" height="17.4206" viewBox="0 0 168.66 17.420625"><defs>
  <style type="text/css">*{stroke-linejoin: round; stroke-linecap: butt}</style>
 </defs>
 <g id="t13-figure_1">
  <g id="t13-patch_1">
   <path d="M 0 17.420625 
L 168.66 17.420625 
L 168.66 0 
L 0 0 
L 0 17.420625 
z
" style="fill: none"/>
  </g>
  <g id="t13-text_1">
   <!-- $15\ \mathsf{layers} \times 2 = 300\ \mathsf{ms}$ -->
   <g style="fill: #dc2626" transform="translate(0 13.640625) scale(0.18 -0.18)">
    <defs>
     <path id="t13-Cmr10-31" d="M 594 0 
L 594 225 
Q 1394 225 1394 428 
L 1394 3788 
Q 1063 3628 556 3628 
L 556 3853 
Q 1341 3853 1741 4263 
L 1831 4263 
Q 1853 4263 1873 4245 
Q 1894 4228 1894 4206 
L 1894 428 
Q 1894 225 2694 225 
L 2694 0 
L 594 0 
z
" transform="scale(0.015625)"/>
     <path id="t13-Cmr10-35" d="M 556 728 
Q 622 541 758 387 
Q 894 234 1080 148 
Q 1266 63 1466 63 
Q 1928 63 2103 422 
Q 2278 781 2278 1294 
Q 2278 1516 2270 1667 
Q 2263 1819 2228 1959 
Q 2169 2184 2020 2353 
Q 1872 2522 1656 2522 
Q 1441 2522 1286 2456 
Q 1131 2391 1034 2303 
Q 938 2216 863 2119 
Q 788 2022 769 2016 
L 697 2016 
Q 681 2016 657 2036 
Q 634 2056 634 2075 
L 634 4213 
Q 634 4228 654 4245 
Q 675 4263 697 4263 
L 716 4263 
Q 1147 4056 1631 4056 
Q 2106 4056 2547 4263 
L 2566 4263 
Q 2588 4263 2606 4247 
Q 2625 4231 2625 4213 
L 2625 4153 
Q 2625 4122 2613 4122 
Q 2394 3831 2064 3668 
Q 1734 3506 1381 3506 
Q 1125 3506 856 3578 
L 856 2369 
Q 1069 2541 1236 2614 
Q 1403 2688 1663 2688 
Q 2016 2688 2295 2484 
Q 2575 2281 2725 1954 
Q 2875 1628 2875 1288 
Q 2875 903 2686 575 
Q 2497 247 2172 53 
Q 1847 -141 1466 -141 
Q 1150 -141 886 21 
Q 622 184 470 459 
Q 319 734 319 1044 
Q 319 1188 412 1278 
Q 506 1369 647 1369 
Q 788 1369 883 1276 
Q 978 1184 978 1044 
Q 978 906 883 811 
Q 788 716 647 716 
Q 625 716 597 720 
Q 569 725 556 728 
z
" transform="scale(0.015625)"/>
     <path id="t13-Cmss10-6c" d="M 506 0 
L 506 4441 
L 1013 4441 
L 1013 0 
L 506 0 
z
" transform="scale(0.015625)"/>
     <path id="t13-Cmss10-61" d="M 972 -72 
Q 766 -72 605 48 
Q 444 169 356 359 
Q 269 550 269 763 
Q 269 1072 580 1256 
Q 891 1441 1305 1511 
Q 1719 1581 2041 1581 
L 2041 1881 
Q 2041 2128 1900 2337 
Q 1759 2547 1522 2547 
Q 1225 2547 1000 2473 
Q 775 2400 531 2222 
L 494 2675 
Q 753 2825 987 2887 
Q 1222 2950 1522 2950 
Q 1806 2950 2047 2801 
Q 2288 2653 2427 2408 
Q 2566 2163 2566 1881 
L 2566 0 
L 2059 0 
L 2059 238 
Q 1859 84 1576 6 
Q 1294 -72 972 -72 
z
M 756 763 
Q 756 566 937 456 
Q 1119 347 1331 347 
Q 1600 347 1820 467 
Q 2041 588 2041 831 
L 2041 1228 
Q 1641 1228 1198 1125 
Q 756 1022 756 763 
z
" transform="scale(0.015625)"/>
     <path id="t13-Cmss10-79" d="M 275 -1259 
L 238 -819 
Q 484 -922 769 -922 
Q 903 -922 989 -773 
Q 1075 -625 1153 -416 
L 1319 0 
L 91 2841 
L 622 2841 
Q 850 2319 1047 1841 
Q 1244 1363 1380 953 
Q 1516 544 1516 347 
Q 1519 547 1647 964 
Q 1775 1381 1965 1875 
Q 2156 2369 2350 2841 
L 2853 2841 
L 1550 -416 
Q 1425 -716 1347 -872 
Q 1269 -1028 1119 -1170 
Q 969 -1313 769 -1313 
Q 728 -1313 515 -1297 
Q 303 -1281 275 -1259 
z
" transform="scale(0.015625)"/>
     <path id="t13-Cmss10-65" d="M 1594 -72 
Q 1300 -72 1044 51 
Q 788 175 602 390 
Q 416 606 314 882 
Q 213 1159 213 1441 
Q 213 1806 373 2159 
Q 534 2513 831 2731 
Q 1128 2950 1503 2950 
Q 2116 2950 2386 2500 
Q 2656 2050 2656 1403 
L 684 1403 
Q 684 1150 801 904 
Q 919 659 1130 503 
Q 1341 347 1594 347 
Q 2150 347 2584 691 
L 2625 256 
Q 2491 122 2162 25 
Q 1834 -72 1594 -72 
z
M 722 1778 
L 2259 1778 
Q 2209 2103 2015 2318 
Q 1822 2534 1503 2534 
Q 1316 2534 1150 2426 
Q 984 2319 876 2145 
Q 769 1972 722 1778 
z
" transform="scale(0.015625)"/>
     <path id="t13-Cmss10-72" d="M 513 0 
L 513 2881 
L 984 2881 
L 984 2328 
Q 1109 2503 1287 2637 
Q 1466 2772 1670 2842 
Q 1875 2913 2094 2913 
L 2094 2456 
Q 1809 2456 1561 2315 
Q 1313 2175 1166 1933 
Q 1019 1691 1019 1403 
L 1019 0 
L 513 0 
z
" transform="scale(0.015625)"/>
     <path id="t13-Cmss10-73" d="M 178 213 
L 263 672 
Q 716 359 1259 359 
Q 1494 359 1659 461 
Q 1825 563 1825 781 
Q 1825 947 1698 1053 
Q 1572 1159 1403 1191 
L 1013 1269 
Q 688 1334 450 1559 
Q 213 1784 213 2100 
Q 213 2391 353 2583 
Q 494 2775 731 2862 
Q 969 2950 1259 2950 
Q 1538 2950 1745 2904 
Q 1953 2859 2194 2747 
L 2119 2297 
Q 1888 2434 1673 2490 
Q 1459 2547 1191 2547 
Q 981 2547 836 2455 
Q 691 2363 691 2163 
Q 691 2025 800 1926 
Q 909 1828 1063 1791 
L 1491 1709 
Q 1709 1659 1895 1537 
Q 2081 1416 2192 1233 
Q 2303 1050 2303 831 
Q 2303 525 2167 323 
Q 2031 122 1798 25 
Q 1566 -72 1259 -72 
Q 684 -72 178 213 
z
" transform="scale(0.015625)"/>
     <path id="t13-Cmsy10-a3" d="M 941 184 
Q 941 234 972 275 
L 2303 1600 
L 972 2931 
Q 941 2963 941 3016 
Q 941 3063 978 3103 
Q 1016 3144 1069 3144 
Q 1113 3144 1166 3103 
L 2491 1778 
L 3809 3103 
Q 3863 3144 3903 3144 
Q 3956 3144 3993 3106 
Q 4031 3069 4031 3016 
Q 4031 2963 4000 2931 
L 2669 1600 
L 4000 275 
Q 4031 234 4031 184 
Q 4031 131 3993 93 
Q 3956 56 3903 56 
Q 3856 56 3809 103 
L 2491 1422 
L 1166 103 
Q 1119 56 1069 56 
Q 1016 56 978 97 
Q 941 138 941 184 
z
" transform="scale(0.015625)"/>
     <path id="t13-Cmr10-32" d="M 319 0 
L 319 172 
Q 319 188 331 206 
L 1325 1306 
Q 1550 1550 1690 1715 
Q 1831 1881 1968 2097 
Q 2106 2313 2186 2536 
Q 2266 2759 2266 3009 
Q 2266 3272 2169 3511 
Q 2072 3750 1880 3894 
Q 1688 4038 1416 4038 
Q 1138 4038 916 3870 
Q 694 3703 603 3438 
Q 628 3444 672 3444 
Q 816 3444 917 3347 
Q 1019 3250 1019 3097 
Q 1019 2950 917 2848 
Q 816 2747 672 2747 
Q 522 2747 420 2851 
Q 319 2956 319 3097 
Q 319 3338 409 3548 
Q 500 3759 670 3923 
Q 841 4088 1055 4175 
Q 1269 4263 1509 4263 
Q 1875 4263 2190 4108 
Q 2506 3953 2690 3670 
Q 2875 3388 2875 3009 
Q 2875 2731 2753 2481 
Q 2631 2231 2440 2026 
Q 2250 1822 1953 1562 
Q 1656 1303 1563 1216 
L 838 519 
L 1453 519 
Q 1906 519 2211 526 
Q 2516 534 2534 550 
Q 2609 631 2688 1141 
L 2875 1141 
L 2694 0 
L 319 0 
z
" transform="scale(0.015625)"/>
     <path id="t13-Cmr10-3d" d="M 481 850 
Q 428 850 393 890 
Q 359 931 359 978 
Q 359 1031 393 1068 
Q 428 1106 481 1106 
L 4500 1106 
Q 4547 1106 4581 1068 
Q 4616 1031 4616 978 
Q 4616 931 4581 890 
Q 4547 850 4500 850 
L 481 850 
z
M 481 2094 
Q 428 2094 393 2131 
Q 359 2169 359 2222 
Q 359 2269 393 2309 
Q 428 2350 481 2350 
L 4500 2350 
Q 4547 2350 4581 2309 
Q 4616 2269 4616 2222 
Q 4616 2169 4581 2131 
Q 4547 2094 4500 2094 
L 481 2094 
z
" transform="scale(0.015625)"/>
     <path id="t13-Cmr10-33" d="M 609 494 
Q 759 275 1012 169 
Q 1266 63 1556 63 
Q 1928 63 2084 380 
Q 2241 697 2241 1100 
Q 2241 1281 2208 1462 
Q 2175 1644 2097 1800 
Q 2019 1956 1883 2050 
Q 1747 2144 1550 2144 
L 1125 2144 
Q 1069 2144 1069 2203 
L 1069 2259 
Q 1069 2309 1125 2309 
L 1478 2338 
Q 1703 2338 1851 2506 
Q 2000 2675 2069 2917 
Q 2138 3159 2138 3378 
Q 2138 3684 1994 3881 
Q 1850 4078 1556 4078 
Q 1313 4078 1091 3986 
Q 869 3894 738 3706 
Q 750 3709 759 3711 
Q 769 3713 781 3713 
Q 925 3713 1022 3613 
Q 1119 3513 1119 3372 
Q 1119 3234 1022 3134 
Q 925 3034 781 3034 
Q 641 3034 541 3134 
Q 441 3234 441 3372 
Q 441 3647 606 3850 
Q 772 4053 1033 4158 
Q 1294 4263 1556 4263 
Q 1750 4263 1965 4205 
Q 2181 4147 2356 4039 
Q 2531 3931 2642 3762 
Q 2753 3594 2753 3378 
Q 2753 3109 2633 2881 
Q 2513 2653 2303 2487 
Q 2094 2322 1844 2241 
Q 2122 2188 2372 2031 
Q 2622 1875 2773 1631 
Q 2925 1388 2925 1106 
Q 2925 753 2731 467 
Q 2538 181 2222 20 
Q 1906 -141 1556 -141 
Q 1256 -141 954 -26 
Q 653 88 461 316 
Q 269 544 269 863 
Q 269 1022 375 1128 
Q 481 1234 641 1234 
Q 744 1234 830 1186 
Q 916 1138 964 1050 
Q 1013 963 1013 863 
Q 1013 706 903 600 
Q 794 494 641 494 
L 609 494 
z
" transform="scale(0.015625)"/>
     <path id="t13-Cmr10-30" d="M 1600 -141 
Q 816 -141 533 504 
Q 250 1150 250 2041 
Q 250 2597 351 3087 
Q 453 3578 754 3920 
Q 1056 4263 1600 4263 
Q 2022 4263 2290 4056 
Q 2559 3850 2700 3523 
Q 2841 3197 2892 2823 
Q 2944 2450 2944 2041 
Q 2944 1491 2842 1011 
Q 2741 531 2444 195 
Q 2147 -141 1600 -141 
z
M 1600 25 
Q 1956 25 2131 390 
Q 2306 756 2347 1200 
Q 2388 1644 2388 2144 
Q 2388 2625 2347 3031 
Q 2306 3438 2132 3767 
Q 1959 4097 1600 4097 
Q 1238 4097 1063 3765 
Q 888 3434 847 3029 
Q 806 2625 806 2144 
Q 806 1788 823 1472 
Q 841 1156 916 820 
Q 991 484 1158 254 
Q 1325 25 1600 25 
z
" transform="scale(0.015625)"/>
     <path id="t13-Cmss10-6d" d="M 506 0 
L 506 2881 
L 991 2881 
L 991 2444 
Q 1163 2666 1403 2789 
Q 1644 2913 1919 2913 
Q 2563 2913 2731 2400 
Q 2903 2638 3158 2775 
Q 3413 2913 3694 2913 
Q 4172 2913 4373 2644 
Q 4575 2375 4575 1881 
L 4575 0 
L 4050 0 
L 4050 1881 
Q 4050 2497 3419 2497 
Q 3206 2497 3065 2355 
Q 2925 2213 2864 2005 
Q 2803 1797 2803 1588 
L 2803 0 
L 2278 0 
L 2278 1881 
Q 2278 2203 2120 2350 
Q 1963 2497 1644 2497 
Q 1428 2497 1290 2355 
Q 1153 2213 1092 2005 
Q 1031 1797 1031 1588 
L 1031 0 
L 506 0 
z
" transform="scale(0.015625)"/>
    </defs>
    <use xlink:href="#t13-Cmr10-31" transform="translate(0 0.609375)"/>
    <use xlink:href="#t13-Cmr10-35" transform="translate(50 0.609375)"/>
    <use xlink:href="#t13-Cmss10-6c" transform="translate(129.26403 0.609375)"/>
    <use xlink:href="#t13-Cmss10-61" transform="translate(153.043327 0.609375)"/>
    <use xlink:href="#t13-Cmss10-79" transform="translate(201.041374 0.609375)"/>
    <use xlink:href="#t13-Cmss10-65" transform="translate(247.135124 0.609375)"/>
    <use xlink:href="#t13-Cmss10-72" transform="translate(291.51989 0.609375)"/>
    <use xlink:href="#t13-Cmss10-73" transform="translate(325.601921 0.609375)"/>
    <use xlink:href="#t13-Cmsy10-a3" transform="translate(381.441765 0.609375)"/>
    <use xlink:href="#t13-Cmr10-32" transform="translate(476.685905 0.609375)"/>
    <use xlink:href="#t13-Cmr10-3d" transform="translate(544.244499 0.609375)"/>
    <use xlink:href="#t13-Cmr10-33" transform="translate(639.48864 0.609375)"/>
    <use xlink:href="#t13-Cmr10-30" transform="translate(689.48864 0.609375)"/>
    <use xlink:href="#t13-Cmr10-30" transform="translate(739.48864 0.609375)"/>
    <use xlink:href="#t13-Cmss10-6d" transform="translate(818.75267 0.609375)"/>
    <use xlink:href="#t13-Cmss10-73" transform="translate(898.147201 0.609375)"/>
   </g>
  </g>
 </g>
</svg>
</g>
<text x="500.0" y="428.0" font-size="16" fill="#6b7280" text-anchor="middle">Left context is omitted: it costs nothing in time. Only the right edge moves the clock.</text>
</svg>