<svg xmlns="http://www.w3.org/2000/svg" viewBox="0 0 1000 276" width="100%" role="img" font-family="system-ui,-apple-system,Segoe UI,sans-serif">
<title>Moshi + interactivity post-training (Fisher) — two-track conversation timeline</title>
<desc>Channel 0 is the human input speaker; channel 1 is the model output. Red regions mark simultaneous speech.</desc>
<defs><pattern id="hatch" width="7" height="7" patternTransform="rotate(45)" patternUnits="userSpaceOnUse"><line x1="0" y1="0" x2="0" y2="7" stroke="#dc2626" stroke-width="2.6" opacity=".85"/></pattern></defs>
<line x1="134.0" y1="40" x2="134.0" y2="188" stroke="#e5e7eb" stroke-width="1"/>
<text x="134.0" y="213" font-size="20" fill="#6b7280" text-anchor="middle">0s</text>
<line x1="195.0" y1="40" x2="195.0" y2="188" stroke="#e5e7eb" stroke-width="1"/>
<text x="195.0" y="213" font-size="20" fill="#6b7280" text-anchor="middle">2s</text>
<line x1="256.0" y1="40" x2="256.0" y2="188" stroke="#e5e7eb" stroke-width="1"/>
<text x="256.0" y="213" font-size="20" fill="#6b7280" text-anchor="middle">4s</text>
<line x1="317.0" y1="40" x2="317.0" y2="188" stroke="#e5e7eb" stroke-width="1"/>
<text x="317.0" y="213" font-size="20" fill="#6b7280" text-anchor="middle">6s</text>
<line x1="378.1" y1="40" x2="378.1" y2="188" stroke="#e5e7eb" stroke-width="1"/>
<text x="378.1" y="213" font-size="20" fill="#6b7280" text-anchor="middle">8s</text>
<line x1="439.1" y1="40" x2="439.1" y2="188" stroke="#e5e7eb" stroke-width="1"/>
<text x="439.1" y="213" font-size="20" fill="#6b7280" text-anchor="middle">10s</text>
<line x1="500.1" y1="40" x2="500.1" y2="188" stroke="#e5e7eb" stroke-width="1"/>
<text x="500.1" y="213" font-size="20" fill="#6b7280" text-anchor="middle">12s</text>
<line x1="561.1" y1="40" x2="561.1" y2="188" stroke="#e5e7eb" stroke-width="1"/>
<text x="561.1" y="213" font-size="20" fill="#6b7280" text-anchor="middle">14s</text>
<line x1="622.1" y1="40" x2="622.1" y2="188" stroke="#e5e7eb" stroke-width="1"/>
<text x="622.1" y="213" font-size="20" fill="#6b7280" text-anchor="middle">16s</text>
<line x1="683.1" y1="40" x2="683.1" y2="188" stroke="#e5e7eb" stroke-width="1"/>
<text x="683.1" y="213" font-size="20" fill="#6b7280" text-anchor="middle">18s</text>
<line x1="744.1" y1="40" x2="744.1" y2="188" stroke="#e5e7eb" stroke-width="1"/>
<text x="744.1" y="213" font-size="20" fill="#6b7280" text-anchor="middle">20s</text>
<line x1="805.2" y1="40" x2="805.2" y2="188" stroke="#e5e7eb" stroke-width="1"/>
<text x="805.2" y="213" font-size="20" fill="#6b7280" text-anchor="middle">22s</text>
<line x1="866.2" y1="40" x2="866.2" y2="188" stroke="#e5e7eb" stroke-width="1"/>
<text x="866.2" y="213" font-size="20" fill="#6b7280" text-anchor="middle">24s</text>
<line x1="927.2" y1="40" x2="927.2" y2="188" stroke="#e5e7eb" stroke-width="1"/>
<text x="927.2" y="213" font-size="20" fill="#6b7280" text-anchor="middle">26s</text>
<rect x="134" y="48" width="842" height="58" fill="#f8fafc" stroke="#e5e7eb" stroke-width="1" rx="3"/>
<text x="118" y="72.0" font-size="24" font-weight="600" fill="#1f2328" text-anchor="end">User</text>
<text x="118" y="97.0" font-size="17" fill="#6b7280" text-anchor="end">channel 0</text>
<rect x="134.0" y="55" width="79.9" height="44" fill="#0b5cad" rx="2.5" opacity=".92"/>
<rect x="426.6" y="55" width="90.9" height="44" fill="#0b5cad" rx="2.5" opacity=".92"/>
<rect x="134" y="124" width="842" height="58" fill="#f8fafc" stroke="#e5e7eb" stroke-width="1" rx="3"/>
<text x="118" y="148.0" font-size="24" font-weight="600" fill="#1f2328" text-anchor="end">Model</text>
<text x="118" y="173.0" font-size="17" fill="#6b7280" text-anchor="end">channel 1</text>
<rect x="215.1" y="131" width="12.2" height="44" fill="#b45309" rx="2.5" opacity=".92"/>
<rect x="233.8" y="131" width="34.8" height="44" fill="#b45309" rx="2.5" opacity=".92"/>
<rect x="277.7" y="131" width="72.6" height="44" fill="#b45309" rx="2.5" opacity=".92"/>
<rect x="519.3" y="131" width="67.7" height="44" fill="#b45309" rx="2.5" opacity=".92"/>
<rect x="653.2" y="131" width="103.7" height="44" fill="#b45309" rx="2.5" opacity=".92"/>
<rect x="841.5" y="131" width="62.2" height="44" fill="#b45309" rx="2.5" opacity=".92"/>
<text x="134" y="31" font-size="26" font-weight="700" fill="#1f2328">Moshi + interactivity post-training (Fisher)</text>
<text x="976" y="31" font-size="20" fill="#6b7280" text-anchor="end">simultaneous speech: none</text>
</svg>